<svg xmlns="http://www.w3.org/2000/svg">
<defs>
<font horiz-adv-x="0" id="font"><font-face ascent="794" bbox="-146 -229.0423 1081 852" cap-height="774" descent="-206" font-family="Blake Typewriter" units-per-em="1000" x-height="569" /><missing-glyph d="M362 330H370V278H362ZM496 466C496 466 505 471 515 482C524 494 534 512 534 539C534 591 517 624 488 644C458 664 416 672 367 672C318 672 276 664 246 644C217 624 200 591 200 539C200 512 210 494 219 482C229 471 238 466 238 466V456L234 458C234 458 223 464 213 477C202 490 192 510 192 539C192 594 210 630 241 651C272 673 315 680 367 680C419 680 462 673 493 651C524 630 542 594 542 539C542 510 532 490 521 477C511 464 500 458 500 458L496 456ZM289 372C290 367 291 362 292 355C293 349 293 341 293 331C293 312 299 300 310 293C323 285 341 282 366 282C392 282 411 285 423 293C435 300 441 312 441 331C441 341 441 349 442 355C443 362 444 367 445 372L454 374L453 370C452 366 451 361 451 354C450 348 449 340 449 331C449 309 442 294 428 285C415 277 394 274 366 274C339 274 319 277 306 285C292 294 285 309 285 331C285 340 284 348 283 354C283 361 282 366 280 374ZM189 352C177 358 169 360 161 361C153 361 146 361 134 361C124 361 116 364 111 369C106 374 103 381 103 389C103 395 107 400 114 403C118 406 123 408 125 413C126 416 127 419 127 423C127 427 126 432 126 436C127 446 130 453 145 453C161 453 165 445 171 434C175 425 180 413 197 405L270 368V358L266 360L193 397C174 407 168 419 163 430C159 438 156 445 145 445C137 445 135 441 135 435C135 432 135 428 135 425C135 419 135 414 133 409C130 403 124 399 118 396C115 394 111 393 111 389C111 383 113 378 117 375C121 371 127 369 134 369C142 369 148 369 154 369C157 369 159 369 162 369C171 369 179 366 193 360L274 322V312ZM227 230C211 221 205 210 201 201C195 190 191 182 175 182C160 182 157 189 156 199C156 203 157 208 157 212C157 216 156 219 155 222C153 227 148 229 144 232C137 235 133 240 133 246C133 254 136 261 141 266C146 271 154 274 164 274C176 274 183 274 191 274C199 275 207 277 219 283L267 305L271 307L275 299L271 297L223 275C209 269 201 266 192 266C189 266 187 26
<glyph d="M180 206H514V292H180ZM624 0 396 774H266L52 0H166L339 718H321L507 0Z" glyph-name="A" horiz-adv-x="676" unicode="A" /><glyph d="M203 774H91V0H203ZM150 691H302C417 691 471 652 471 568V567C471 480 409 440 272 440H131V396H315C502 396 586 474 586 580V581C586 702 491 774 329 774H145ZM157 358H302C431 358 501 310 501 219V217C501 124 448 83 326 83H139V0H353C512 0 616 82 616 208V209C616 335 521 400 356 400H137ZM394 389V414H326V389Z" glyph-name="B" horiz-adv-x="676" unicode="B" /><glyph d="M354 789C169 789 59 628 59 386V380C59 143 160 -15 351 -15C499 -15 605 93 618 263L517 292C495 144 448 83 351 83C233 83 172 204 172 380V386C172 578 233 691 348 691C440 691 488 611 508 482L616 510C594 671 499 789 354 789Z" glyph-name="C" horiz-adv-x="676" unicode="C" /><glyph d="M91 774V0H203V774ZM294 774H142V683H290C423 683 500 576 500 387V381C500 196 422 91 290 91H149V0H294C485 0 617 151 617 380V386C617 628 493 774 294 774Z" glyph-name="D" horiz-adv-x="676" unicode="D" /><glyph d="M100 774V0H212V774ZM152 360H536V446H152ZM152 688H571V774H152ZM152 0H591V86H152Z" glyph-name="E" horiz-adv-x="676" unicode="E" /><glyph d="M100 774V0H212V774ZM152 360H546V446H152ZM152 688H596V774H152Z" glyph-name="F" horiz-adv-x="676" unicode="F" /><glyph d="M518 0H623V364H518ZM498 183H550V212H498ZM354 789C169 789 59 628 59 386V380C59 117 160 -15 314 -13C483 -13 550 224 523 364H517C495 147 437 83 335 83C233 83 172 204 172 380V386C172 578 233 691 348 691C440 691 488 611 508 482L616 510C594 671 499 789 354 789Z" glyph-name="G" horiz-adv-x="676" unicode="G" /><glyph d="M560 0H623V364H359V285H582L533 335ZM559 220V262H523V220ZM354 789C169 789 59 628 59 386V380C59 117 160 -15 326 -13C502 -13 562 224 547 344H529C507 147 437 83 344 83C233 83 172 204 172 380V386C172 578 233 691 348 691C440 691 488 611 508 482L616 510C594 671 499 789 354 789Z" glyph-name="G.calt" horiz-adv-x="676" /><glyph d="M91 774V0H205V774ZM471 774V0H585V774ZM150 360H531V446H150Z" glyph-name="H" horiz-adv-x="676" unicode="H" /><glyph d="M281 774V0H395V774ZM103 77V0H573V77ZM103 774V697H573V774Z" glyph-name="I" horiz-adv-x="676" unicode="I" /><glyph d="M588 242V774H477V242C477 124 436 76 341 76C264 76 203 109 203 229C203 253 205 279 210 309L105 288C99 257 96 228 96 202C96 54 191 -15 335 -15C505 -15 588 71 588 242Z" glyph-name="J" horiz-adv-x="676" unicode="J" /><glyph d="M454 774 150 279 189 190 573 774ZM493 0H613L379 554L310 461ZM91 774V0H203V774Z" glyph-name="K" horiz-adv-x="676" unicode="K" /><glyph d="M143 0H586V87H143ZM91 774V0H203V774Z" glyph-name="L" horiz-adv-x="676" unicode="L" /><glyph d="M91 774V0H188L181 774ZM521 774H441L339 66H353L243 774H157L291 0H396ZM501 774 494 0H585V774Z" glyph-name="M" horiz-adv-x="676" unicode="M" /><glyph d="M585 774H485V40L530 29L219 774H91V0H191V742L145 734L449 0H585Z" glyph-name="N" horiz-adv-x="676" unicode="N" /><glyph d="M617 380V386C617 657 504 789 338 789C172 789 59 657 59 386V380C59 115 172 -15 338 -15C500 -15 617 121 617 380ZM506 380C506 189 453 83 338 83C228 83 171 196 171 380V386C171 589 219 691 338 691C453 691 506 582 506 386Z" glyph-name="O" horiz-adv-x="676" unicode="O" /><glyph d="M139 370 140 285H343C507 285 617 381 617 529V534C617 679 505 774 334 774H123V689H330C435 689 500 630 500 534V530C500 418 449 370 331 370ZM91 774V0H203V774Z" glyph-name="P" horiz-adv-x="676" unicode="P" /><glyph d="M507 -186C559 -186 608 -168 635 -149L609 -67C609 -67 565 -88 499 -88C411 -88 369 -32 369 22L302 21C302 -111 374 -186 507 -186ZM617 370V376C617 647 504 779 338 779C172 779 59 647 59 376V370C59 105 172 -25 338 -25C500 -25 617 111 617 370ZM506 370C506 179 453 73 338 73C228 73 171 186 171 370V376C171 579 219 681 338 681C453 681 506 572 506 376Z" glyph-name="Q" horiz-adv-x="676" unicode="Q" /><glyph d="M300 394H146L147 314H274L324 346L355 356C488 356 587 430 587 554V556C587 692 485 774 305 774H145V689H311C415 689 472 640 472 550V547C472 448 411 394 300 394ZM507 0H633V3C604 39 578 124 551 205C520 298 458 352 355 352V366L332 369L254 314C389 314 429 239 450 163C469 93 487 32 507 0ZM91 774V0H203V774Z" glyph-name="R" horiz-adv-x="676" unicode="R" /><glyph d="M61 226C66 79 180 -15 345 -15C506 -15 614 65 614 205C614 353 498 394 389 428C291 460 198 487 198 583C198 650 242 696 337 696C421 696 481 650 496 534L593 561C576 712 467 790 340 790C188 790 91 707 91 578C91 426 209 383 319 346C416 313 507 286 507 195C507 121 454 79 352 79C246 79 160 134 154 258Z" glyph-name="S" horiz-adv-x="676" unicode="S" /><glyph d="M62 688H614V774H62ZM283 774V0H394V774Z" glyph-name="T" horiz-adv-x="676" unicode="T" /><glyph d="M197 286V774H83V272C83 113 133 -15 342 -15C551 -15 594 127 594 272V774H483V286C483 183 474 75 344 75C217 75 197 177 197 286Z" glyph-name="U" horiz-adv-x="676" unicode="U" /><glyph d="M43 774 277 0H407L633 774H515L331 61H358L162 774Z" glyph-name="V" horiz-adv-x="676" unicode="V" /><glyph d="M160 774H45L147 0H286L347 717L328 716L387 0H526L632 774H515L469 61H475L401 774H275L204 61H215Z" glyph-name="W" horiz-adv-x="676" unicode="W" /><glyph d="M522 0H647L379 437L367 444L182 774H56L308 351L320 343ZM159 0 339 326 285 419 29 0ZM375 349 627 774H501L329 434Z" glyph-name="X" horiz-adv-x="676" unicode="X" /><glyph d="M271 334V0H383V334ZM5 774 271 290H383L635 774H520L315 346H344L123 774Z" glyph-name="Y" horiz-adv-x="676" unicode="Y" /><glyph d="M538 774 42 42V0H140L640 731V774ZM91 688H569V774H91ZM99 0H637V86H100Z" glyph-name="Z" horiz-adv-x="676" unicode="Z" /><glyph d="M91 128C91 39 158 -15 268 -15C409 -15 449 108 449 108H460L455 290C455 146 394 62 289 62C237 62 208 88 208 133C208 189 237 216 314 235L337 241C434 266 461 282 470 320L456 408C456 357 418 329 320 309L291 303C152 274 91 221 91 128ZM579 0C566 52 559 108 559 214V370C559 506 478 584 350 584C222 584 133 509 110 398L206 377C224 472 284 500 347 500C413 500 456 463 456 409L455 123C455 65 462 38 471 0Z" glyph-name="a" horiz-adv-x="676" unicode="a" /><glyph d="M567 0C559 43 555 108 555 139L556 370C556 506 475 584 331 584C203 584 114 518 114 424C114 371 152 343 152 343L242 365V368C229 381 218 408 218 426C218 471 261 500 328 500C402 500 453 463 453 409L452 130C452 66 455 33 460 0ZM88 128C88 39 155 -15 265 -15C406 -15 446 108 446 108H457L452 290C452 146 391 62 286 62C235 62 205 87 205 131V133C205 189 234 216 311 235L334 241C431 266 458 282 467 320L453 408C453 357 415 329 317 309L288 303C150 274 88 222 88 130Z" glyph-name="a.calt" horiz-adv-x="676" /><glyph d="M300 68C379 68 439 101 502 166C577 253 614 363 627 486L725 472C710 351 648 198 545 112C473 22 393 -15 285 -15C140 -15 38 57 38 197C38 297 87 409 315 472C434 531 456 569 456 619C456 666 428 713 367 713C311 713 280 672 280 631C280 571 312 529 368 445L550 172C588 115 622 74 679 74C734 74 758 109 743 169L819 181C852 71 795 -15 674 -15C573 -15 515 41 471 108L275 402C212 497 177 552 177 621C177 717 259 790 369 790C475 790 556 719 556 626C556 551 512 492 338 406C196 363 149 291 149 210C149 113 214 68 300 68Z" glyph-name="ampersand" horiz-adv-x="676" unicode="&amp;" /><glyph d="M579 149C508 149 472 198 472 284C472 435 550 522 651 522C713 522 757 483 757 400C757 274.773 684 149 579 149ZM771 338C776 368 780 399 780 426C780 528 737 610 637 610C473 610 365 445 365 277C365 135 435 61 535 61C630 61 690 133 720 201H752ZM825 239 887 577H798L765 396L744 307L729 207C714 104 779 57 860 57C1003 57 1081 188 1081 395C1081 671 887 804 660 804C377 804 150 613 150 275C150 -41 364 -158 608 -158C682 -158 733 -152 807 -130L789 -42C722 -62 672 -65 629 -65C433 -65 255 10 255 275C255 564 430 719 646 719C839 719 985 623 985 383C985 237 949 140 874 140C825 140 813 173 825 239Z" glyph-name="at" horiz-adv-x="676" unicode="@" /><glyph d="M195 216 199 317V794H92V0H159ZM200 287C200 421 263 496 353 496C451 496 505 411 505 287V282C505 159 451 74 353 74C263 74 200 149 200 282ZM176 282C176 116 238 -15 384 -15C518 -15 616 119 616 282V287C616 451 519 584 384 584C278 584 225 513 205 437H168Z" glyph-name="b" horiz-adv-x="676" unicode="b" /><glyph d="M77 287V283C77 99 178 -15 352 -15C471 -15 583 58 609 181L518 220C496 114 431 75 351 75C243 75 182 151 182 282V287C182 418 242 494 351 494C408 494 485 458 508 345L602 387C572 518 469 584 354 584C190 584 77 470 77 287Z" glyph-name="c" horiz-adv-x="676" unicode="c" /><glyph d="M128 -66 168 -85C191 -80 278 -57 278 -103C278 -148 177 -151 85 -122L69 -205C245 -264 359 -206 359 -122C359 -48 274 -26 190 -54L197 -59L250 14L189 19Z" glyph-name="cedilla" horiz-adv-x="676" unicode="&#184;" /><glyph d="M174 -11C218 -11 249 19 249 58C249 95 218 124 174 124C130 124 100 95 100 58C100 19 130 -11 174 -11ZM174 381C218 381 249 411 249 450C249 487 218 516 174 516C130 516 100 487 100 450C100 411 130 381 174 381Z" glyph-name="colon" horiz-adv-x="676" unicode=":" /><glyph d="M409 36C409 100 374 125 331 125C287 125 255 95 255 52C255 15 284 -29 375 -15L335 15C338 -48 292 -84 276 -97L306 -131C380 -91 409 -17 409 36Z" glyph-name="comma" horiz-adv-x="676" unicode="," /><glyph d="M67 282C67 118 163 -15 299 -15C405 -15 458 56 483 142H515V437H478C453 517 405 584 299 584C163 584 67 451 67 287ZM488 216V0H591V794H484V318ZM483 282C483 149 420 74 330 74C232 74 178 159 178 282V287C178 408 232 496 330 496C420 496 483 418 483 287Z" glyph-name="d" horiz-adv-x="676" unicode="d" /><glyph d="M338 646C382 646 413 676 413 715C413 752 382 781 338 781C294 781 264 752 264 715C264 676 294 646 338 646ZM581 646C625 646 656 676 656 715C656 752 625 781 581 781C537 781 507 752 507 715C507 676 537 646 581 646Z" glyph-name="dieresis" horiz-adv-x="676" unicode="&#168;" /><glyph d="M338 646C382 646 413 676 413 715C413 752 382 781 338 781C294 781 264 752 264 715C264 676 294 646 338 646Z" glyph-name="dotaccent" horiz-adv-x="676" unicode="&#729;" /><glyph d="M292 569V0H399V569ZM83 79V0H593V79ZM103 569V490H353V569Z" glyph-name="dotlessi" horiz-adv-x="676" unicode="&#305;" /><glyph d="M233 569V490H453V569ZM421 22C421 -83 382 -132 300 -132C229 -132 182 -90 156 -1L70 -56C97 -153 176 -221 297 -221C417 -221 528 -177 528 14V569H421Z" glyph-name="dotlessj" horiz-adv-x="676" unicode="&#567;" /><glyph d="M342 584C184 584 77 465 77 287V283C77 99 178 -15 342 -15C481 -15 579 61 596 183L500 204C477 115 430 75 347 75C243 75 182 151 182 282V287C182 423 237 495 341 495C421 495 471 445 471 363C471 350 469 324 467 305L500 349H153V274H574C577 292 578 314 578 337C578 486 485 584 342 584Z" glyph-name="e" horiz-adv-x="676" unicode="e" /><glyph d="M239 665 274 614 474 724 413 808ZM342 584C184 584 77 465 77 287V283C77 99 178 -15 342 -15C481 -15 579 61 596 183L500 204C477 115 430 75 347 75C243 75 182 151 182 282V287C182 423 237 495 341 495C421 495 471 445 471 363C471 350 469 324 467 305L500 349H153V274H574C577 292 578 314 578 337C578 486 485 584 342 584Z" glyph-name="eacute" horiz-adv-x="676" unicode="&#233;" /><glyph d="M364 410H445V444H364ZM351 -15C509 -15 657 56 657 214C657 353 545 431 366 431V421C524 421 614 494 614 612C614 748 487 810 351 810C214 810 84 749 84 612C84 494 174 421 332 421V431C153 431 41 353 41 214C41 54 191 -15 351 -15ZM351 78C250 78 158 120 158 221C158 325 247 372 351 372C454 372 540 324 540 221C540 122 450 78 351 78ZM353 716C433 716 500 674 500 594C500 512 433 466 351 466C268 466 198 511 198 594C198 676 271 716 353 716ZM334 410V444H252V410Z" glyph-name="eight" horiz-adv-x="676" unicode="8" /><glyph d="M54 569V490H594V569ZM251 0H357V556L416 569C322 569 309 625 309 650C309 710 346 723 402 723C452 723 497 714 563 668H564L607 748C547 790 470 809 403 809C311 809 211 782 211 683C211 641 241 596 322 564L251 521Z" glyph-name="f" horiz-adv-x="676" unicode="f" /><glyph d="M313 589C186 589 56 539 56 429C56 379 81 357 81 357L177 378C177 378 168 392 168 422C168 460 186 506 293 506C388 506 412 467 413 423L423 97C425 42 466 -15 567 -15C643 -15 663 7 663 7V71C663 71 643 67 603 67C562 67 538 86 538 132V423C538 526 441 589 313 589ZM413 423C413 378 386 331 301 331H274C116 331 31 254 31 146C31 38 129 -15 230 -15C332 -15 393 46 419 100H439L417 283C417 199 411 153 382 119C343 72 300 61 261 61C196 61 161 97 161 154C161 199 193 258 280 258C377 258 419 289 426 309Z" glyph-name="f_f_h" horiz-adv-x="676" /><glyph glyph-name="f_i" horiz-adv-x="676" /><glyph d="M178 678H615V774H178ZM91 376 192 363 232 774H129ZM368 -15C553 -15 663 86 663 274C663 433 557 549 398 549C291 549 201 487 170 369L192 363C218 424 279 459 360 459C472 459 547 374 547 262C547 145 479 78 373 78C266 78 193 132 155 253L53 221C84 76 197 -13 368 -15Z" glyph-name="five" horiz-adv-x="676" unicode="5" /><glyph d="M505 774 469 632V0H581V774ZM46 162H681V252H107L149 221L494 648L505 774L46 216Z" glyph-name="four" horiz-adv-x="676" unicode="4" /><glyph d="M29 -86C29 -184 164 -221 323 -221C479 -221 631 -161 631 -34C631 56 561 110 430 110H276C220 110 175 129 175 171C175 208 200 239 235 253L223 262C223 262 80 237 80 133C80 66 157 25 259 25H410C491 25 530 -5 530 -51C530 -124 417 -148 330 -148C211 -148 144 -123 144 -67C144 -10 204 25 308 25L201 51V28C125 27 29 -7 29 -86ZM83 396C83 287 177 211 313 211C445 211 542 290 542 396V398C542 504 444 584 313 584C181 584 83 505 83 398ZM436 397C436 325 389 281 311 281C239 281 188 330 188 397V399C188 469 236 514 311 514C383 514 436 465 436 399ZM453 535 472 502 644 512 630 615 620 616Z" glyph-name="g" horiz-adv-x="676" unicode="g" /><glyph d="M29 -86C29 -184 164 -221 323 -221C479 -221 631 -161 631 -34C631 56 561 110 430 110H276C220 110 175 129 175 171C175 208 200 239 235 253L223 262C223 262 80 237 80 133C80 66 157 25 259 25H410C491 25 530 -5 530 -51C530 -124 417 -148 330 -148C211 -148 144 -123 144 -67C144 -10 204 25 308 25L201 51V28C125 27 29 -7 29 -86ZM83 396C83 287 177 211 313 211C445 211 542 290 542 396L529 436H515C515 505 436 584 306 584C181 584 83 505 83 398ZM436 397C436 325 389 281 311 281C239 281 188 330 188 397V399C188 469 236 514 311 514C383 514 436 465 436 399ZM542 396C542 471 577 483 641 483H647V585H641C574 585 516 557 517 436Z" glyph-name="g.salt" horiz-adv-x="676" /><glyph d="M95 0H202V544C202 682 256 724 329 724C408 724 455 668 455 584V583C455 500 406 433 320 433H271V350H319C439 350 512 304 512 217V216C512 136 472 83 349 83H268V0H342C518 0 616 64 616 204V205C616 339 509 403 328 403V393C455 393 569 449 569 593V594C569 721 471 809 331 809C210 809 95 741 95 549ZM286 382H410V416H286Z" glyph-name="germandbls" horiz-adv-x="676" unicode="&#223;" /><glyph d="M398 584C302 584 231 515 200 437H171L195 420V776H92V0H199V253C199 425 278 503 363 503C437 503 484 455 484 318V0H590V352C590 494 519 584 398 584Z" glyph-name="h" horiz-adv-x="676" unicode="h" /><glyph d="M344 654C388 654 418 684 418 722C418 758 388 788 344 788C300 788 271 758 271 722C271 684 300 654 344 654ZM292 569V0H399V569ZM83 79V0H593V79ZM103 569V490H353V569Z" glyph-name="i" horiz-adv-x="676" unicode="i" /><glyph d="M473 654C517 654 547 684 547 722C547 758 517 788 473 788C429 788 400 758 400 722C400 684 429 654 473 654ZM233 569V490H453V569ZM421 22C421 -83 382 -132 300 -132C229 -132 182 -90 156 -1L70 -56C97 -153 176 -221 297 -221C417 -221 528 -177 528 14V569H421Z" glyph-name="j" horiz-adv-x="676" unicode="j" /><glyph d="M96 794V0H203V794ZM461 569 142 230 191 163 587 569ZM514 0H630L368 407L301 335Z" glyph-name="k" horiz-adv-x="676" unicode="k" /><glyph d="M292 794V0H399V794ZM90 79V0H600V79ZM100 794V715H350V794Z" glyph-name="l" horiz-adv-x="676" unicode="l" /><glyph d="M80 569V0H172V342C172 452 208 515 248 515C283 515 292 482 292 419V0H384V452C384 512 367 584 296 584C227 584 189 515 173 467H144L168 420V569ZM596 0V452C596 512 579 584 508 584C439 584 401 515 385 467H356L384 342C384 452 420 515 460 515C495 515 504 482 504 419V0Z" glyph-name="m" horiz-adv-x="676" unicode="m" /><glyph d="M398 584C302 584 231 517 199 437H170L194 420V569H92V0H198V253C198 425 277 503 363 503C437 503 483 456 483 319V0H590V352C590 494 519 584 398 584Z" glyph-name="n" horiz-adv-x="676" unicode="n" /><glyph d="M76 524C76 369 186 266 341 266C466 266 599 345 605 533L583 540C586 437 587 423 587 400V393C587 227 516 79 350 79C264 79 190 120 150 197L70 130C132 34 234 -14 348 -14C574 -14 703 166 703 402V410C703 617 580 790 363 790C201 790 76 686 76 524ZM370 356C265 356 187 418 187 523C187 626 261 693 364 693C493.2752 693 564 609 564 524C564 418 483 356 370 356Z" glyph-name="nine" horiz-adv-x="676" unicode="9" /><glyph d="M338 584C496 584 603 465 603 287V283C603 104 497 -15 338 -15C178 -15 73 95 73 283V287C73 465 180 584 338 584ZM338 495C239 495 183 424 183 287V282C183 156 239 73 338 73C445 73 492 156 492 282V287C492 415 436 495 338 495Z" glyph-name="o" horiz-adv-x="676" unicode="o" /><glyph d="M176 7C176 7 20 0 20 -115C20 -183 82 -214 146 -214C181 -214 216 -205 243 -189L215 -111C194 -120 172 -125 152 -125C119 -125 93 -112 93 -83C93 -28 195 4 195 4Z" glyph-name="ogonek" horiz-adv-x="676" unicode="&#731;" /><glyph d="M237 774C237 706 186 650 56 650H25V559H56C164 559 204 605 228 661H214V0H326V774Z" glyph-name="one" horiz-adv-x="676" unicode="1" /><glyph d="M128 774C128 747 108 725 37 725H25V660H37C99 660 115 678 125 700L119 730V470H197V774Z" glyph-name="one.num" horiz-adv-x="676" /><glyph d="M609 287C609 451 512 584 377 584C271 584 218 513 193 427H161V132H198C223 52 271 -15 377 -15C512 -15 609 118 609 282ZM188 356V569H85V-206H192V263ZM193 287C193 420 255 496 345 496C444 496 498 410 498 287V282C498 159 444 74 345 74C255 74 193 149 193 282Z" glyph-name="p" horiz-adv-x="676" unicode="p" /><glyph d="M270 362C270 574 322 732 503 809L490 851C265 792 156 606 156 362C156 118 265 -68 490 -127L503 -85C322 -8 270 150 270 362Z" glyph-name="parenleft" horiz-adv-x="676" unicode="(" /><glyph d="M386 362C386 150 334 -8 153 -85L166 -127C391 -68 500 118 500 362C500 606 391 792 166 851L153 809C334 732 386 574 386 362Z" glyph-name="parenright" horiz-adv-x="676" unicode=")" /><glyph d="M338 -11C382 -11 413 19 413 58C413 95 382 124 338 124C294 124 264 95 264 58C264 19 294 -11 338 -11Z" glyph-name="period" horiz-adv-x="676" unicode="." /><glyph d="M130 -11C174 -11 205 19 205 58C205 95 174 124 130 124C86 124 56 95 56 58C56 19 86 -11 130 -11Z" glyph-name="period.cond" horiz-adv-x="676" /><glyph d="M281 689V120H368V689ZM599 465H50V389H599Z" glyph-name="plus" horiz-adv-x="676" unicode="+" /><glyph d="M67 287V282C67 117 163 -15 298 -15C404 -15 458 56 478 132H515L507 287C507 453 444 584 300 584C165 584 67 450 67 287ZM488 353 484 252V-206H590V569H523ZM483 287V282C483 148 420 74 330 74C231 74 177 158 177 282V287C177 409 231 496 330 496C420 496 483 419 483 287Z" glyph-name="q" horiz-adv-x="676" unicode="q" /><glyph d="M146 419V189H253V419ZM286 790C157 790 66 716 42 593L138 572C161 660 208 700 281 701C380 701 426 602 426 493V488C426 377 401 326 341 326C316 326 253 333 253 419L242 416C243 319 290 245 388 245C469 245 531 322 531 489V493C531 658 444 790 286 790ZM199 -11C243 -11 274 19 274 58C274 95 243 124 199 124C155 124 125 95 125 58C125 19 155 -11 199 -11Z" glyph-name="question" horiz-adv-x="676" unicode="?" /><glyph d="M43 685C43 621 78 596 121 596C165 596 197 626 197 669C197 706 168 750 77 736L117 706C114 769 160 805 176 818L146 852C72 812 43 738 43 685ZM-146 685C-146 621 -111 596 -68 596C-24 596 8 626 8 669C8 706 -21 750 -112 736L-72 706C-75 769 -29 805 -13 818L-43 852C-117 812 -146 738 -146 685Z" glyph-name="quotedblleft" horiz-adv-x="676" unicode="&#8220;" /><glyph d="M409 703C409 767 374 792 331 792C287 792 255 762 255 719C255 682 284 638 375 652L335 682C338 619 292 583 276 570L306 536C380 576 409 650 409 703ZM598 703C598 767 563 792 520 792C476 792 444 762 444 719C444 682 473 638 564 652L524 682C527 619 481 583 465 570L495 536C569 576 598 650 598 703Z" glyph-name="quotedblright" horiz-adv-x="676" unicode="&#8221;" /><glyph d="M409 703C409 767 374 792 331 792C287 792 255 762 255 719C255 682 284 638 375 652L335 682C338 619 292 583 276 570L306 536C380 576 409 650 409 703Z" glyph-name="quoteright" horiz-adv-x="676" unicode="&#8217;" /><glyph d="M76 794 96 555H163L183 794Z" glyph-name="quotesingle" horiz-adv-x="676" unicode="'" /><glyph d="M418 584C310 584 244 517 209 427H180L204 390V569H101V0H208V237C208 406 279 512 385 512C472 512 537 419 474 248L575 234C666 465 546 584 418 584Z" glyph-name="r" horiz-adv-x="676" unicode="r" /><glyph d="M75 162C88 51 193 -15 340 -15C498 -15 582 51 582 156C582 282 475 308 376 327C264 348 206 357 206 425C206 472 249 499 328 499C397 499 458 469 471 392L566 411C556 519 455 584 337 584C184 584 104 518 104 420C104 287 222 263 326 243C409 227 483 214 483 153C483 91 424 70 342 70C250 70 180 113 170 191Z" glyph-name="s" horiz-adv-x="676" unicode="s" /><glyph d="M513 705C391 603 177 347 177 22V0H292V22C292 286 437 545 589 707V774H522ZM64 678H541V774H64Z" glyph-name="seven" horiz-adv-x="676" unicode="7" /><glyph d="M697 251C697 406 587 509 432 509C307 509 174 430 168 242L190 235C187 338 186 352 186 375V382C186 548 257 696 423 696C509 696 583 655 623 578L703 645C641 741 539 789 425 789C199 789 70 609 70 373V365C70 158 193 -15 410 -15C572 -15 697 89 697 251ZM403 419C508 419 586 357 586 252C586 149 512 82 409 82C279.7248 82 209 166 209 251C209 357 290 419 403 419Z" glyph-name="six" horiz-adv-x="676" unicode="6" /><glyph glyph-name="space" horiz-adv-x="676" unicode=" " /><glyph d="M179 220C179 29 284 -15 407 -15C514 -15 606 56 631 158L553 205C527 116 480 74 409 74C327 74 286 123 286 228V742L179 717ZM30 569V490H552V569Z" glyph-name="t" horiz-adv-x="676" unicode="t" /><glyph d="M277 390H435V424H277ZM509 576C509 486 431 446 351 446H262V353H350C475 353 543 313 543 221C543 135 480 78 359 78C229 78 155 158 151 274L49 251C49 95 163 -15 354 -15C541 -15 660 74 660 214C660 349 555 408 359 408V402C509 397 623 462 623 594C623 715 520 790 380 790C212 790 105 698 86 559L183 523C197 625 267 692 371 692C450 692 509 647 509 576Z" glyph-name="three" horiz-adv-x="676" unicode="3" /><glyph d="M362 789C203 789 93 697 71 493L170 467H171C185 624 245 696 355 696C465 696 520 625 520 518C520 346 309 236 74 58V0H668V98H201L198 58C378 186 633 314 633 531C633 682 525 789 362 789Z" glyph-name="two" horiz-adv-x="676" unicode="2" /><glyph d="M520 518C520 346 309 236 74 58V0H668V98H201L198 58C378 186 633 314 633 531C633 682 515 789 368 789C209 789 94 689 94 551C94 477 130 422 173 386L266 425V426C236 458 207 506 207 548C207 648 281 696 361 696C455 696 520 625 520 518Z" glyph-name="two.alt" horiz-adv-x="676" /><glyph d="M141 642C128 653 120 664 120 686C120 720 150 736 173 736C218 736 234 709 234 671C234 606 165 550 54 503V470H308V528H150L113 493C215 531 300 593 300 677C300 746 254 789 175 789C100 789 54 749 54 693C54 663 68 641 90 626L141 640Z" glyph-name="two.tab" horiz-adv-x="676" /><glyph d="M268 -15C364 -15 425 52 457 132H486L462 149V0H564V569H458V293C458 141 389 66 303 66C219 66 173 113 173 250V569H66V217C66 75 137 -15 268 -15Z" glyph-name="u" horiz-adv-x="676" unicode="u" /><glyph d="M209 441 217 442C222 443 229 441 231 433C250 436 278 446 306 457C355 476 414 484 446 484C478 484 507 478 532 478C557 478 584 479 601 479C618 479 646 475 653 475C660 475 675 475 703 475C731 475 734 472 734 472C734 472 736 458 762 458C772 458 781 459 788 463C794 462 782 422 739 422C704 422 698 428 698 428C698 428 680 414 656 414C632 414 618 418 618 418C618 418 582 402 536 399C528 406 525 408 515 415L514 414C514 414 552 376 572 333C582 312 561 299 561 299C561 299 557 291 552 291C531 290 528 330 485 377L483 376C483 376 556 272 534 257C523 249 515 243 510 243C494 243 481 288 448 346L445 345C463 305 504 235 487 217C482 211 472 211 467 211C445 211 415 217 407 224C402 229 399 236 392 262L419 252C395 236 358 219 327 219C289 219 258 239 233 250C231 230 223 212 221 206H211C200 261 186 389 209 441ZM414 290C415 279 419 269 435 255C428 265 423 272 414 290ZM738 472C738 472 739 462 763 462C781 462 787 464 785 471ZM188 225C192 225 196 228 196 233C196 238 192 242 187 242C182 242 179 239 179 233C179 228 183 225 188 225ZM205 205H177C177 205 156 256 156 315C156 402 176 440 176 440L204 442C204 442 207 463 191 463C175 463 163 461 147 464C131 467 98 465 92 467C86 469 75 475 67 469C43 451 31 367 42 327C50 296 47 265 42 233C37 201 52 172 76 175C100 178 129 176 148 175C167 174 195 172 201 181C207 190 207 205 205 205Z" glyph-name="uni261A" horiz-adv-x="676" unicode="&#9754;" /><glyph d="M616 445C639 393 625 261 614 206H604C602 212 594 230 592 250C567 239 536 219 498 219C467 219 430 236 406 252L433 262C426 236 423 229 418 224C410 217 380 211 358 211C353 211 343 211 338 217C321 235 362 305 380 345L377 346C344 288 331 243 315 243C310 243 302 249 291 257C269 272 342 376 342 376L340 377C297 330 294 290 273 291C268 291 264 299 264 299C264 299 243 312 253 333C273 376 311 414 311 414L310 416C300 409 295 406 287 399C243 402 207 418 207 418C207 418 193 414 169 414C145 414 127 428 127 428C127 428 121 422 86 422C43 422 31 462 37 463C44 459 53 458 63 458C89 458 91 472 91 472C91 472 94 475 122 475C150 475 165 475 172 475C179 475 207 479 224 479C241 479 268 478 293 478C318 478 347 484 379 484C411 484 470 476 519 457C547 446 575 436 594 433C598 442 606 447 609 446C614 446 616 445 616 445ZM411 290C402 272 397 265 390 255L405 271ZM87 472 40 471C38 464 44 462 62 462C86 462 87 472 87 472ZM641 225C645 225 649 229 649 233C649 238 645 242 641 242C636 242 632 238 632 233C632 229 636 225 641 225ZM620 205C618 205 618 190 624 181C630 172 658 174 677 175C696 176 725 178 749 175C773 172 788 201 783 233C778 265 775 296 783 327C794 367 782 451 758 469C750 475 739 469 733 467C727 465 694 467 678 464C662 461 650 463 634 463C618 463 621 442 621 442L649 440C649 440 669 374 669 315C669 256 652 205 652 205Z" glyph-name="uni261B" horiz-adv-x="676" unicode="&#9755;" /><glyph d="M604 569H494L330 30L358 29L186 569H71L271 0H409Z" glyph-name="v" horiz-adv-x="676" unicode="v" /><glyph d="M355 569H286L204 18L218 17L151 569H41L144 0H282ZM320 569 395 0H534L634 569H528L467 18L482 13L396 569Z" glyph-name="w" horiz-adv-x="676" unicode="w" /><glyph d="M610 0 200 569H85L496 0ZM183 0 363 259 301 328 65 0ZM595 569H480L326 318L376 249Z" glyph-name="x" horiz-adv-x="676" unicode="x" /><glyph d="M35 -136C82 -189 149 -213 206 -213C307 -213 359 -146 409 -1L604 569H494L330 30L358 29L186 569H71L271 0C295 -67 270 -135 213 -135C166 -135 132 -104 95 -62Z" glyph-name="y" horiz-adv-x="676" unicode="y" /><glyph d="M494 569 78 31V0H161L577 537V569ZM104 484H517V569H104ZM146 0H585V85H144Z" glyph-name="z" horiz-adv-x="676" unicode="z" /><glyph d="M375 789C190 789 60 664 60 386V380C60 108 190 -15 375 -15C560 -15 691 122 691 380V386C691 664 560 789 375 789ZM574 380C574 174 503 79 375 79C261 79 176 174 176 380V386C176 626 261 696 375 696C491 696 574 613 574 386Z" glyph-name="zero" horiz-adv-x="676" unicode="0" /></font>
</defs>
</svg>
