<svg xmlns="http://www.w3.org/2000/svg">
<defs>
<font horiz-adv-x="0" id="font"><font-face ascent="794" bbox="-131 -229.0423 1081 852" cap-height="774" descent="-206" font-family="Blake Grotesk" units-per-em="1000" x-height="569" /><missing-glyph d="M362 330H370V278H362ZM496 466C496 466 505 471 515 482C524 494 534 512 534 539C534 591 517 624 488 644C458 664 416 672 367 672C318 672 276 664 246 644C217 624 200 591 200 539C200 512 210 494 219 482C229 471 238 466 238 466V456L234 458C234 458 223 464 213 477C202 490 192 510 192 539C192 594 210 630 241 651C272 673 315 680 367 680C419 680 462 673 493 651C524 630 542 594 542 539C542 510 532 490 521 477C511 464 500 458 500 458L496 456ZM289 372C290 367 291 362 292 355C293 349 293 341 293 331C293 312 299 300 310 293C323 285 341 282 366 282C392 282 411 285 423 293C435 300 441 312 441 331C441 341 441 349 442 355C443 362 444 367 445 372L454 374L453 370C452 366 451 361 451 354C450 348 449 340 449 331C449 309 442 294 428 285C415 277 394 274 366 274C339 274 319 277 306 285C292 294 285 309 285 331C285 340 284 348 283 354C283 361 282 366 280 374ZM189 352C177 358 169 360 161 361C153 361 146 361 134 361C124 361 116 364 111 369C106 374 103 381 103 389C103 395 107 400 114 403C118 406 123 408 125 413C126 416 127 419 127 423C127 427 126 432 126 436C127 446 130 453 145 453C161 453 165 445 171 434C175 425 180 413 197 405L270 368V358L266 360L193 397C174 407 168 419 163 430C159 438 156 445 145 445C137 445 135 441 135 435C135 432 135 428 135 425C135 419 135 414 133 409C130 403 124 399 118 396C115 394 111 393 111 389C111 383 113 378 117 375C121 371 127 369 134 369C142 369 148 369 154 369C157 369 159 369 162 369C171 369 179 366 193 360L274 322V312ZM227 230C211 221 205 210 201 201C195 190 191 182 175 182C160 182 157 189 156 199C156 203 157 208 157 212C157 216 156 219 155 222C153 227 148 229 144 232C137 235 133 240 133 246C133 254 136 261 141 266C146 271 154 274 164 274C176 274 183 274 191 274C199 275 207 277 219 283L267 305L271 307L275 299L271 297L223 275C209 269 201 266 192 266C189 266 187 266 1
<glyph d="M150 206H554V292H150ZM12 0H131L212 255L359 718H332L494 250L580 0H702L411 774H281Z" glyph-name="A" horiz-adv-x="715" unicode="A" /><glyph d="M203 774H91V0H203ZM150 691H371C486 691 540 652 540 568V567C540 480 478 440 341 440H131V396H384C571 396 655 474 655 580V581C655 702 560 774 398 774H145ZM157 358H371C500 358 570 310 570 219V217C570 124 517 83 395 83H139V0H422C581 0 685 82 685 208V209C685 335 590 400 425 400H137ZM463 389V414H395V389Z" glyph-name="B" horiz-adv-x="726" unicode="B" /><glyph d="M413 789C200 789 59 628 59 386V380C59 143 201 -15 414 -15C590 -15 714 82 756 253L647 282C600 136 539 83 417 83C274 83 176 204 176 380V386C176 578 264 691 414 691C531 691 609 615 638 472L748 502C719 678 590 789 413 789Z" glyph-name="C" horiz-adv-x="806" unicode="C" /><glyph d="M91 774V0H203V774ZM363 774H142V683H359C532 683 629 576 629 387V381C629 196 531 91 359 91H149V0H363C594 0 746 151 746 380V386C746 628 602 774 363 774Z" glyph-name="D" horiz-adv-x="805" unicode="D" /><glyph d="M91 774V0H203V774ZM143 360H573V446H143ZM143 688H623V774H143ZM143 0H643V86H143Z" glyph-name="E" horiz-adv-x="693" unicode="E" /><glyph d="M91 774V0H203V774ZM143 339H563V424H143ZM143 688H613V774H143Z" glyph-name="F" horiz-adv-x="647" unicode="F" /><glyph d="M646 183H698V212H646ZM666 0H771V364H666ZM59 386V380C59 145 199 -15 403 -15C588 -15 702 155 680 364H666C662 183 571 83 422 83C274 83 176 206 176 380V386C176 578 264 691 414 691C536 691 615 615 645 472L755 502C726 679 594 789 413 789C200 789 59 628 59 386Z" glyph-name="G" horiz-adv-x="824" unicode="G" /><glyph d="M692 0H761V364H491V285H714L654 337ZM176 386C176 578 264 691 414 691C536 691 615 615 645 472L755 502C726 679 594 789 413 789C200 789 59 628 59 386V380C59 145 199 -15 403 -15C588 -15 711 156 672 355H658C654 174 571 83 422 83C274 83 176 206 176 380Z" glyph-name="G.calt" horiz-adv-x="824" /><glyph d="M91 774V0H205V774ZM592 774V0H706V774ZM150 360H652V446H150Z" glyph-name="H" horiz-adv-x="797" unicode="H" /><glyph d="M94 774V0H208V774Z" glyph-name="I" horiz-adv-x="301" unicode="I" /><glyph d="M498 262V774H387V262C387 124 356 76 268 76C179 76 137 126 137 230C137 232 137 232 140 269L41 248C37 223 36 208 36 196C36 63 120 -15 263 -15C425 -15 498 71 498 262Z" glyph-name="J" horiz-adv-x="584" unicode="J" /><glyph d="M91 774V0H203V774ZM548 774 144 279 189 190 673 774ZM590 0H713L423 514L354 427Z" glyph-name="K" horiz-adv-x="744" unicode="K" /><glyph d="M143 0H616V87H143ZM91 774V0H203V774Z" glyph-name="L" horiz-adv-x="653" unicode="L" /><glyph d="M91 774V0H198V323L191 774ZM799 774H702L538 328L452 66H491L405 328L241 774H147L421 0H526ZM759 774 752 323V0H853V774Z" glyph-name="M" horiz-adv-x="944" unicode="M" /><glyph d="M701 774H601V60L647 49L219 774H91V0H191V722L144 714L565 0H701Z" glyph-name="N" horiz-adv-x="792" unicode="N" /><glyph d="M769 380V386C769 627 626 789 414 789C202 789 59 627 59 386V380C59 145 202 -15 414 -15C620 -15 769 151 769 380ZM652 380C652 199 559 83 414 83C274 83 176 206 176 380V386C176 579 263 691 414 691C559 691 652 572 652 386Z" glyph-name="O" horiz-adv-x="828" unicode="O" /><glyph d="M139 370 140 285H373C537 285 647 381 647 529V534C647 679 535 774 364 774H123V689H360C465 689 530 630 530 534V530C530 418 479 370 361 370ZM91 774V0H203V774Z" glyph-name="P" horiz-adv-x="691" unicode="P" /><glyph d="M362 21C362 -111 434 -186 566 -186C678 -186 754 -132 760 -119L717 -30C717 -30 645 -88 561 -88C471 -88 449 -25 449 29ZM769 370V376C769 617 626 779 414 779C202 779 59 617 59 376V370C59 135 202 -25 414 -25C620 -25 769 141 769 370ZM652 370C652 189 559 73 414 73C274 73 176 196 176 370V376C176 569 263 681 414 681C559 681 652 562 652 376Z" glyph-name="Q" horiz-adv-x="828" unicode="Q" /><glyph d="M370 394H146L147 314H344L394 346L425 356C558 356 657 430 657 554V556C657 692 555 774 375 774H145V689H381C485 689 542 640 542 550V547C542 448 481 394 370 394ZM577 0H703V3C674 39 648 124 621 205C590 298 528 352 425 352V366L402 369L324 314C459 314 499 239 520 163C539 93 557 32 577 0ZM91 774V0H203V774Z" glyph-name="R" horiz-adv-x="743" unicode="R" /><glyph d="M372 -15C548 -15 667 65 667 205C667 362 547 404 429 434C314 463 200 481 200 583C200 650 264 696 357 696C458 696 526 643 550 544L650 571C621 708 514 790 362 790C200 790 88 704 88 578C88 412 226 382 352 352C457 327 553 302 553 199C553 127 482 79 374 79C252 79 161 147 138 248L37 216C71 72 194 -15 372 -15Z" glyph-name="S" horiz-adv-x="717" unicode="S" /><glyph d="M276 774V0H387V774ZM10 688H652V774H10Z" glyph-name="T" horiz-adv-x="662" unicode="T" /><glyph d="M197 316V774H83V312C83 91 187 -15 396 -15C605 -15 714 105 714 312V774H603V316C603 163 538 81 398 81C261 81 197 157 197 316Z" glyph-name="U" horiz-adv-x="797" unicode="U" /><glyph d="M8 774 292 0H422L698 774H580L346 61H373L127 774Z" glyph-name="V" horiz-adv-x="706" unicode="V" /><glyph d="M477 716 640 0H779L995 774H878L702 61H728L564 774H438L277 61H308L123 774H8L220 0H359L524 717Z" glyph-name="W" horiz-adv-x="1003" unicode="W" /><glyph d="M557 0H682L392 437L380 444L173 774H47L321 351L333 343ZM150 0 352 326 298 419 20 0ZM388 349 662 774H536L342 434Z" glyph-name="X" horiz-adv-x="702" unicode="X" /><glyph d="M271 334V0H383V334ZM5 774 271 290H383L635 774H520L315 346H344L123 774Z" glyph-name="Y" horiz-adv-x="640" unicode="Y" /><glyph d="M538 774 42 42V0H140L640 731V774ZM91 688H569V774H91ZM99 0H637V86H100Z" glyph-name="Z" horiz-adv-x="685" unicode="Z" /><glyph d="M46 128C46 39 113 -15 223 -15C364 -15 404 108 404 108H415L410 290C410 146 349 62 244 62C193 62 163 87 163 131V133C163 189 192 216 269 235L292 241C389 266 416 282 425 320L411 408C411 357 373 329 275 309L246 303C108 274 46 222 46 130ZM513 135 514 370C515 506 433 584 289 584C161 584 72 518 72 424C72 371 110 343 110 343L200 365V368C187 381 176 408 176 426C176 471 219 500 286 500C360 500 411 463 411 409L409 114C408 30 450 -15 530 -15C561 -15 578 -11 616 4V70C593 64 581 63 567 63C527 64 513 86 513 135Z" glyph-name="a" horiz-adv-x="625" unicode="a" /><glyph d="M110 343 200 365V368C187 381 176 408 176 426C176 471 219 500 286 500C360 500 411 463 411 409L410 130C410 66 413 33 418 0H525C517 43 513 108 513 139L514 370C514 506 433 584 289 584C161 584 72 518 72 424C72 371 110 343 110 343ZM46 128C46 39 113 -15 223 -15C364 -15 404 108 404 108H415L410 290C410 146 349 62 244 62C193 62 163 87 163 131V133C163 189 192 216 269 235L292 241C389 266 416 282 425 320L411 408C411 357 373 329 275 309L246 303C108 274 46 222 46 130Z" glyph-name="a.calt" horiz-adv-x="584" /><glyph d="M300 68C379 68 439 101 502 166C577 253 614 363 627 486L725 472C710 351 648 198 545 112C473 22 393 -15 285 -15C140 -15 38 57 38 197C38 297 87 409 315 472C434 531 456 569 456 619C456 666 428 713 367 713C311 713 280 672 280 631C280 571 303 542 368 445L550 172C588 115 622 74 679 74C734 74 758 109 743 169L819 181C852 71 795 -15 674 -15C573 -15 515 41 471 108L275 402C212 497 177 552 177 621C177 717 259 790 369 790C475 790 556 719 556 626C556 551 512 492 338 406C196 363 149 291 149 210C149 113 214 68 300 68Z" glyph-name="ampersand" horiz-adv-x="843" unicode="&amp;" /><glyph d="M579 149C508 149 472 198 472 284C472 435 550 522 651 522C713 522 757 483 757 400C757 274.773 684 149 579 149ZM771 338C776 368 780 399 780 426C780 528 737 610 637 610C473 610 365 445 365 277C365 135 435 61 535 61C630 61 690 133 720 201H752ZM825 239 887 577H798L765 396L744 307L729 207C714 104 779 57 860 57C1003 57 1081 188 1081 395C1081 671 887 804 660 804C377 804 150 613 150 275C150 -41 364 -158 608 -158C682 -158 733 -152 807 -130L789 -42C722 -62 672 -65 629 -65C433 -65 255 10 255 275C255 564 430 719 646 719C839 719 985 623 985 383C985 237 949 140 874 140C825 140 813 173 825 239Z" glyph-name="at" horiz-adv-x="1231" unicode="@" /><glyph d="M177 216 181 317V794H74V0H141ZM158 282C158 116 220 -15 366 -15C500 -15 598 119 598 282V287C598 451 501 584 366 584C260 584 207 513 187 437H150ZM487 287V282C487 159 433 74 335 74C245 74 182 149 182 282V287C182 421 245 496 335 496C433 496 487 411 487 287Z" glyph-name="b" horiz-adv-x="656" unicode="b" /><glyph d="M316 494C211 494 157 399 157 285V282C157 171 211 75 322 75C405 75 453 119 475 214L571 193C554 68 456 -15 317 -15C150 -15 52 116 52 283V287C52 454 154 584 319 584C447 584 543 513 564 366L468 345C444 460 391 494 316 494Z" glyph-name="c" horiz-adv-x="599" unicode="c" /><glyph d="M128 -66 168 -85C191 -80 278 -57 278 -103C278 -148 177 -151 85 -122L69 -205C245 -264 359 -206 359 -122C359 -48 274 -26 190 -54L197 -59L250 14L189 19Z" glyph-name="cedilla" horiz-adv-x="419" unicode="&#184;" /><glyph d="M174 -11C218 -11 249 19 249 58C249 95 218 124 174 124C130 124 100 95 100 58C100 19 130 -11 174 -11ZM174 381C218 381 249 411 249 450C249 487 218 516 174 516C130 516 100 487 100 450C100 411 130 381 174 381Z" glyph-name="colon" horiz-adv-x="349" unicode=":" /><glyph d="M209 36C209 100 174 125 131 125C87 125 55 95 55 52C55 15 84 -29 175 -15L135 15C138 -48 92 -84 76 -97L106 -131C180 -91 209 -17 209 36Z" glyph-name="comma" horiz-adv-x="264" unicode="," /><glyph d="M290 584C154 584 58 451 58 287V282C58 118 154 -15 290 -15C396 -15 449 56 474 142H506V437H469C444 517 396 584 290 584ZM582 794H475V318L479 216V0H582ZM321 496C411 496 474 418 474 287V282C474 149 411 74 321 74C223 74 169 159 169 282V287C169 408 223 496 321 496Z" glyph-name="d" horiz-adv-x="656" unicode="d" /><glyph d="M130 646C174 646 205 676 205 715C205 715 205 715 205 715C205 752 174 781 130 781C86 781 56 752 56 715C56 715 56 715 56 715C56 676 86 646 130 646ZM373 646C417 646 448 676 448 715C448 715 448 715 448 715C448 752 417 781 373 781C329 781 299 752 299 715C299 715 299 715 299 715C299 676 329 646 373 646Z" glyph-name="dieresis" horiz-adv-x="504" unicode="&#168;" /><glyph d="M130 646C174 646 205 676 205 715C205 715 205 715 205 715C205 752 174 781 130 781C86 781 56 752 56 715C56 715 56 715 56 715C56 676 86 646 130 646Z" glyph-name="dotaccent" horiz-adv-x="261" unicode="&#729;" /><glyph d="M76 569V0H183V569Z" glyph-name="dotlessi" horiz-adv-x="259" unicode="&#305;" /><glyph d="M183 569H76V-39C76 -108 68 -137 19 -137C-27 -137 -36 -111 -36 -82C-36 -65 -35 -54 -32 -43L-121 -28C-130 -55 -131 -76 -131 -96C-131 -177 -76 -218 25 -218C134 -218 183 -155 183 -30Z" glyph-name="dotlessj" horiz-adv-x="259" unicode="&#567;" /><glyph d="M322 75C405 75 452 115 475 204L571 183C554 61 456 -15 317 -15C153 -15 52 99 52 283V287C52 465 159 584 317 584C460 584 553 486 553 337C553 314 552 292 549 274H128V349H475L442 305C444 324 446 350 446 363C446 445 396 495 316 495C212 495 157 423 157 287V282C157 151 218 75 322 75Z" glyph-name="e" horiz-adv-x="602" unicode="e" /><glyph d="M239 665 274 614 474 724 413 808ZM322 75C405 75 452 115 475 204L571 183C554 61 456 -15 317 -15C153 -15 52 99 52 283V287C52 465 159 584 317 584C460 584 553 486 553 337C553 314 552 292 549 274H128V349H475L442 305C444 324 446 350 446 363C446 445 396 495 316 495C212 495 157 423 157 287V282C157 151 218 75 322 75Z" glyph-name="eacute" horiz-adv-x="602" unicode="&#233;" /><glyph d="M364 410H445V444H364ZM351 -15C509 -15 657 56 657 214C657 214 657 215 657 215C656 353 544 431 366 431V421C524 421 614 494 614 612C614 612 614 612 614 613C614 748 487 810 351 810C214 810 84 749 84 613C84 613 84 612 84 612C84 494 174 421 332 421V431C153 431 41 353 41 214C41 214 41 214 41 214C41 54 191 -15 351 -15ZM351 78C250 78 159 120 158 220C158 220 158 221 158 221C158 325 247 372 351 372C454 372 540 324 540 222C540 222 540 221 540 221C540 122 450 78 351 78ZM353 716C433 716 500 674 500 594C500 594 500 594 500 594C500 512 433 466 351 466C268 466 198 511 198 594C198 594 198 594 198 595C198 676 271 716 353 716ZM334 410V444H252V410Z" glyph-name="eight" horiz-adv-x="698" unicode="8" /><glyph d="M10 494H367V569H10ZM154 551H167V581H154ZM103 0H209V556L248 569C171 569 155 612 155 648C155 692 185 723 244 723C282 723 311 717 337 709H338L349 788C328 799 279 810 226 810C138 810 55 776 55 674C55 647 67 591 167 568L103 522Z" glyph-name="f" horiz-adv-x="378" unicode="f" /><glyph d="M313 589C186 589 56 539 56 429C56 379 81 357 81 357L177 378C177 378 168 392 168 422C168 460 186 506 293 506C388 506 412 467 413 423L423 97C425 42 466 -15 567 -15C643 -15 663 7 663 7V71C663 71 643 67 603 67C562 67 538 86 538 132V423C538 526 441 589 313 589ZM413 423C413 378 386 331 301 331H274C116 331 31 254 31 146C31 38 129 -15 230 -15C332 -15 393 46 419 100H439L417 283C417 199 411 153 382 119C343 72 300 61 261 61C196 61 161 97 161 154C161 199 193 258 280 258C377 258 419 289 426 309Z" glyph-name="f_f_h" horiz-adv-x="658" /><glyph glyph-name="f_i" horiz-adv-x="500" /><glyph d="M178 678H615V774H178ZM91 376 192 363 232 774H129ZM170 369 192 363C218 424 279 459 360 459C472 459 547 374 547 262C547 262 547 262 547 262C547 145 479 78 373 78C266 78 193 132 155 253L53 221C84 76 197 -13 368 -15C553 -15 663 86 663 274C663 274 663 275 663 275C662 434 557 549 398 549C291 549 201 487 170 369Z" glyph-name="five" horiz-adv-x="724" unicode="5" /><glyph d="M505 774 469 665V215V0H581V774ZM46 162H681V252H107L149 221L494 648L505 774L46 216Z" glyph-name="four" horiz-adv-x="710" unicode="4" /><glyph d="M16 -80C16 -169 123 -221 313 -221C458 -221 601 -161 601 -31C601 56 508 114 393 114H267C192 114 153 132 153 164C153 200 192 211 315 211L314 233C314 233 58 259 58 136C58 64 129 28 261 28H380C447 28 500 0 500 -48C500 -114 430 -150 317 -150C204 -150 128 -120 128 -63C128 -1 196 28 296 28L183 54V31C92 27 16 -16 16 -80ZM85 396C85 312 133 248 228 223L230 215C250 211 292 211 315 211C447 211 544 290 544 396V398C544 504 446 584 315 584C183 584 85 505 85 398ZM438 397C438 325 391 281 313 281C241 281 190 330 190 397V399C190 469 238 514 313 514C385 514 438 465 438 399ZM427 538 467 517 549 690 548 695H430Z" glyph-name="g" horiz-adv-x="627" unicode="g" /><glyph d="M582 66V569H475V318L479 216V66C479 -83 425 -140 311 -140C196 -140 163 -89 163 -54C163 -42 166 -31 168 -23L79 -8C70 -29 66 -50 66 -69C66 -156 153 -218 315 -218C493 -218 582 -139 582 66ZM506 152V437H469C444 517 396 584 290 584C148 584 58 451 58 292V287C58 128 148 -5 290 -5C396 -5 449 66 474 152ZM321 496C411 496 474 418 474 292V287C474 159 411 84 321 84C217 84 169 169 169 287V292C169 408 217 496 321 496Z" glyph-name="g.calt" horiz-adv-x="656" /><glyph d="M95 0H202V544C202 682 256 725 336 725C408 725 455 683 455 604V603C455 533 406 483 309 483H271V400H310C441 400 512 347 512 237V236C512 142 461 83 330 83H257V0H341C507 0 616 73 616 236V237C616 389 474 466 328 446V442C455 442 559 499 559 623V624C559 743 456 810 348 810C208 810 95 741 95 549ZM286 432H402V466H286Z" glyph-name="germandbls" horiz-adv-x="669" unicode="&#223;" /><glyph d="M382 584C286 584 215 515 184 437H155L179 420V776H76V0H183V253C183 425 262 503 347 503C421 503 468 455 468 318V0H574V352C574 494 503 584 382 584Z" glyph-name="h" horiz-adv-x="639" unicode="h" /><glyph d="M60 429V354H409V429Z" glyph-name="hyphen" horiz-adv-x="469" unicode="-" /><glyph d="M129 654C173 654 203 684 203 722C203 722 203 722 203 722C203 758 173 788 129 788C85 788 56 758 56 722C56 722 56 722 56 722C56 684 85 654 129 654ZM76 569V0H183V569Z" glyph-name="i" horiz-adv-x="259" unicode="i" /><glyph d="M129 654C173 654 203 684 203 722C203 722 203 722 203 722C203 758 173 788 129 788C85 788 56 758 56 722C56 722 56 722 56 722C56 684 85 654 129 654ZM183 569H76V-39C76 -108 68 -137 19 -137C-27 -137 -36 -111 -36 -82C-36 -65 -35 -54 -32 -43L-121 -28C-130 -55 -131 -76 -131 -96C-131 -177 -76 -218 25 -218C134 -218 183 -155 183 -30Z" glyph-name="j" horiz-adv-x="259" unicode="j" /><glyph d="M72 794V0H179V794ZM415 569 118 231 167 163 533 569ZM460 0H576L344 407L277 335Z" glyph-name="k" horiz-adv-x="592" unicode="k" /><glyph d="M76 794V0H183V794Z" glyph-name="l" horiz-adv-x="258" unicode="l" /><glyph d="M349 584C257 584 205 515 173 437H144L168 420V569H66V0H172V253C172 425 235 505 317 505C385 505 420 455 420 318V0H525V352C525 494 472 584 349 584ZM525 253C525 425 587 505 670 505C737 505 772 455 772 318V0H879V352C879 494 826 584 701 584C609 584 557 515 525 437H508Z" glyph-name="m" horiz-adv-x="938" unicode="m" /><glyph d="M372 584C276 584 205 517 173 437H144L168 420V569H66V0H172V253C172 425 251 503 337 503C411 503 457 456 457 319V0H564V352C564 494 493 584 372 584Z" glyph-name="n" horiz-adv-x="623" unicode="n" /><glyph d="M76 524C76 369 186 266 341 266C466 266 599 345 605 533L583 540C586 437 587 423 587 393C587 227 516 79 350 79C264 79 190 120 150 197L70 130C132 34 234 -14 348 -14C574 -14 703 166 703 402V410C703 617 580 790 363 790C201 790 76 686 76 524ZM370 356C265 356 187 418 187 523C187 523 187 523 187 523C187 626 261 693 364 693C493.2752 693 564 609 564 524C564 524 564 524 564 524C564 418 483 356 370 356Z" glyph-name="nine" horiz-adv-x="761" unicode="9" /><glyph d="M311 584C469 584 576 465 576 287V283C576 104 470 -15 311 -15C151 -15 46 95 46 283V287C46 465 153 584 311 584ZM311 495C212 495 156 424 156 287V282C156 156 212 73 311 73C418 73 465 156 465 282V287C465 415 409 495 311 495Z" glyph-name="o" horiz-adv-x="621" unicode="o" /><glyph d="M176 7C176 7 20 0 20 -115C20 -183 82 -214 146 -214C181 -214 216 -205 243 -189L215 -111C194 -120 172 -125 152 -125C119 -125 93 -112 93 -83C93 -28 195 4 195 4Z" glyph-name="ogonek" horiz-adv-x="205" unicode="&#731;" /><glyph d="M237 774C237 706 186 650 56 650H25V559H56C164 559 204 605 228 661H214V0H326V774Z" glyph-name="one" horiz-adv-x="409" unicode="1" /><glyph d="M128 774C128 747 108 725 37 725H25V660H37C99 660 115 678 125 700L119 730V470H197V774Z" glyph-name="one.num" horiz-adv-x="239" /><glyph d="M148 132H185C210 52 258 -15 364 -15C499 -15 596 118 596 282V287C596 451 499 584 364 584C258 584 205 513 180 427H148ZM175 356V569H72V-206H179V263ZM485 287V282C485 159 431 74 332 74C242 74 180 149 180 282V287C180 420 242 496 332 496C431 496 485 410 485 287Z" glyph-name="p" horiz-adv-x="643" unicode="p" /><glyph d="M6 362C6 118 115 -48 220 -127L263 -95C172 2 120 150 120 362C120 574 172 722 263 819L220 851C115 772 6 606 6 362Z" glyph-name="parenleft" horiz-adv-x="258" unicode="(" /><glyph d="M262 362C262 606 153 772 48 851L5 819C96 722 148 574 148 362C148 150 96 2 5 -95L48 -127C153 -48 262 118 262 362Z" glyph-name="parenright" horiz-adv-x="293" unicode=")" /><glyph d="M130 -11C174 -11 205 19 205 58C205 58 205 58 205 58C205 95 174 124 130 124C86 124 56 95 56 58C56 58 56 58 56 58C56 19 86 -11 130 -11Z" glyph-name="period" horiz-adv-x="261" unicode="." /><glyph d="M130 -11C174 -11 205 19 205 58C205 95 174 124 130 124C86 124 56 95 56 58C56 19 86 -11 130 -11Z" glyph-name="period.cond" horiz-adv-x="261" /><glyph d="M281 689V120H368V689ZM599 465H50V389H599Z" glyph-name="plus" horiz-adv-x="649" unicode="+" /><glyph d="M281 584C146 584 48 450 48 287V282C48 117 144 -15 279 -15C385 -15 439 56 459 132H496L488 287C488 453 425 584 281 584ZM311 496C401 496 464 419 464 287V282C464 148 401 74 311 74C212 74 158 158 158 282V287C158 409 212 496 311 496ZM571 569H504L469 353L465 252V-206H571Z" glyph-name="q" horiz-adv-x="646" unicode="q" /><glyph d="M253 189V419H146V189ZM531 493C531 658 444 790 286 790C157 790 66 716 42 593L138 572C161 660 208 700 281 701C380 701 426 602 426 493V488C426 377 401 326 341 326C316 326 253 333 253 419L242 416C243 319 290 245 388 245C469 245 531 322 531 489ZM274 58C274 95 243 124 199 124C155 124 125 95 125 58C125 19 155 -11 199 -11C243 -11 274 19 274 58Z" glyph-name="question" horiz-adv-x="606" unicode="?" /><glyph d="M243 685C243 621 278 596 321 596C365 596 397 626 397 669C397 706 368 750 277 736L317 706C314 769 360 805 376 818L346 852C272 812 243 738 243 685ZM54 685C54 621 89 596 132 596C176 596 208 626 208 669C208 706 179 750 88 736L128 706C125 769 171 805 187 818L157 852C83 812 54 738 54 685Z" glyph-name="quotedblleft" horiz-adv-x="453" unicode="&#8220;" /><glyph d="M209 703C209 767 174 792 131 792C87 792 55 762 55 719C55 682 84 638 175 652L135 682C138 619 92 583 76 570L106 536C180 576 209 650 209 703ZM398 703C398 767 363 792 320 792C276 792 244 762 244 719C244 682 273 638 364 652L324 682C327 619 281 583 265 570L295 536C369 576 398 650 398 703Z" glyph-name="quotedblright" horiz-adv-x="453" unicode="&#8221;" /><glyph d="M209 703C209 767 174 792 131 792C87 792 55 762 55 719C55 682 84 638 175 652L135 682C138 619 92 583 76 570L106 536C180 576 209 650 209 703Z" glyph-name="quoteright" horiz-adv-x="264" unicode="&#8217;" /><glyph d="M76 794 96 555H163L183 794Z" glyph-name="quotesingle" horiz-adv-x="253" unicode="'" /><glyph d="M343 584C263 584 208 531 180 437H151L175 420V569H72V0H179V253C179 424 233 512 300 512C352 512 369 475 369 414C369 376 363 342 345 288L446 285C467 334 474 378 474 419C474 523 421 584 343 584Z" glyph-name="r" horiz-adv-x="497" unicode="r" /><glyph d="M391 570C383 572 369 574 348 574C279 574 198 535 178 395H136L175 353V569H72V0H179V263C179 402 240 475 347 475C359 475 373 474 391 472Z" glyph-name="r.calt" horiz-adv-x="408" /><glyph d="M298 70C209 70 143 113 133 191L42 162C55 51 154 -15 296 -15C442 -15 528 51 528 156C528 270 438 306 336 327C245 346 173 359 173 427C173 472 214 499 293 499C351 499 410 469 422 392L513 411C504 519 407 584 294 584C154 584 70 518 70 420C70 303 177 264 274 244C363 226 428 213 428 145C428 101 380 70 298 70Z" glyph-name="s" horiz-adv-x="584" unicode="s" /><glyph d="M513 705C391 603 177 347 177 22V0H292V22C292 286 437 545 589 707V774H522ZM64 678H541V774H64Z" glyph-name="seven" horiz-adv-x="628" unicode="7" /><glyph d="M697 251C697 406 587 509 432 509C307 509 174 430 168 242L190 235C187 338 186 352 186 382C186 548 257 696 423 696C509 696 583 655 623 578L703 645C641 741 539 789 425 789C199 789 70 609 70 373V365C70 158 193 -15 410 -15C572 -15 697 89 697 251ZM403 419C508 419 586 357 586 252C586 252 586 252 586 252C586 149 512 82 409 82C279.7248 82 209 166 209 251C209 251 209 251 209 251C209 357 290 419 403 419Z" glyph-name="six" horiz-adv-x="761" unicode="6" /><glyph glyph-name="space" horiz-adv-x="302" unicode=" " /><glyph d="M16 569V494H385V569ZM109 717V168C109 8 207 -15 294 -15C330 -15 379 -6 405 10L394 87C366 78 340 75 323 75C248 75 216 97 216 182V742Z" glyph-name="t" horiz-adv-x="430" unicode="t" /><glyph d="M12 569V494H388V569ZM237 0V722L130 697V0Z" glyph-name="t.alt" horiz-adv-x="394" /><glyph d="M277 390H435V424H277ZM509 576C509 486 431 446 351 446H262V353H350C475 353 543 313 543 221C543 221 543 221 543 221C543 135 480 78 359 78C229 78 155 158 151 274L49 251C49 95 163 -15 354 -15C541 -15 660 74 660 214C660 214 660 214 660 214C660 349 555 408 359 408V402C509 397 623 462 623 593C623 593 623 594 623 594C623 715 520 790 380 790C212 790 105 698 86 559L183 523C197 625 267 692 371 692C450 692 509 647 509 576C509 576 509 576 509 576Z" glyph-name="three" horiz-adv-x="710" unicode="3" /><glyph d="M362 789C203 789 93 697 71 493L170 467H171C185 624 245 696 355 696C465 696 520 625 520 518C520 518 520 518 520 518C520 346 309 236 74 58V0H668V98H201L198 58C378 186 633 314 633 531C633 531 633 531 633 531C633 682 525 789 362 789Z" glyph-name="two" horiz-adv-x="724" unicode="2" /><glyph d="M520 518C520 346 309 236 74 58V0H668V98H201L198 58C378 186 633 314 633 531C633 682 515 789 368 789C209 789 94 689 94 551C94 477 130 422 173 386L266 425V426C236 458 207 506 207 548C207 648 281 696 361 696C455 696 520 625 520 518Z" glyph-name="two.alt" horiz-adv-x="724" /><glyph d="M141 642C128 653 120 664 120 686C120 720 150 736 173 736C218 736 234 709 234 671C234 606 165 550 54 503V470H308V528H150L113 493C215 531 300 593 300 677C300 746 254 789 175 789C100 789 54 749 54 693C54 663 68 641 90 626L141 640Z" glyph-name="two.tab" horiz-adv-x="359" /><glyph d="M268 -15C364 -15 425 52 457 132H486L462 149V0H564V569H458V293C458 141 389 66 303 66C219 66 173 113 173 250V569H66V217C66 75 137 -15 268 -15Z" glyph-name="u" horiz-adv-x="623" unicode="u" /><glyph d="M209 445C209 445 211 446 216 446C219 447 227 442 231 433C250 436 278 446 306 457C355 476 414 484 446 484C478 484 507 478 532 478C557 478 584 479 601 479C618 479 646 475 653 475C660 475 675 475 703 475C731 475 734 472 734 472C734 472 736 458 762 458C772 458 781 459 788 463C794 462 782 422 739 422C704 422 698 428 698 428C698 428 680 414 656 414C632 414 618 418 618 418C618 418 582 402 538 399C530 406 525 409 515 416L514 414C514 414 552 376 572 333C582 312 561 299 561 299C561 299 557 291 552 291C531 290 528 330 485 377L483 376C483 376 556 272 534 257C523 249 515 243 510 243C494 243 481 288 448 346L445 345C463 305 504 235 487 217C482 211 472 211 467 211C445 211 415 217 407 224C402 229 399 236 392 262L419 252C395 236 358 219 327 219C289 219 258 239 233 250C231 230 223 212 221 206H211C200 261 186 393 209 445ZM414 290 420 271 435 255C428 265 423 272 414 290ZM738 472C738 472 739 462 763 462C781 462 787 464 785 471ZM184 225C189 225 193 229 193 233C193 238 189 242 184 242C180 242 176 238 176 233C176 229 180 225 184 225ZM205 205H173C173 205 156 256 156 315C156 374 176 440 176 440L204 442C204 442 207 463 191 463C175 463 163 461 147 464C131 467 98 465 92 467C86 469 75 475 67 469C43 451 31 367 42 327C50 296 47 265 42 233C37 201 52 172 76 175C100 178 129 176 148 175C167 174 195 172 201 181C207 190 207 205 205 205Z" glyph-name="uni261A" horiz-adv-x="835" unicode="&#9754;" /><glyph d="M616 445C639 393 625 261 614 206H604C602 212 594 230 592 250C567 239 536 219 498 219C467 219 430 236 406 252L433 262C426 236 423 229 418 224C410 217 380 211 358 211C353 211 343 211 338 217C321 235 362 305 380 345L377 346C344 288 331 243 315 243C310 243 302 249 291 257C269 272 342 376 342 376L340 377C297 330 294 290 273 291C268 291 264 299 264 299C264 299 243 312 253 333C273 376 311 414 311 414L310 416C300 409 295 406 287 399C243 402 207 418 207 418C207 418 193 414 169 414C145 414 127 428 127 428C127 428 121 422 86 422C43 422 31 462 37 463C44 459 53 458 63 458C89 458 91 472 91 472C91 472 94 475 122 475C150 475 165 475 172 475C179 475 207 479 224 479C241 479 268 478 293 478C318 478 347 484 379 484C411 484 470 476 519 457C547 446 575 436 594 433C598 442 606 447 609 446C614 446 616 445 616 445ZM411 290C402 272 397 265 390 255L405 271ZM87 472 40 471C38 464 44 462 62 462C86 462 87 472 87 472ZM641 225C645 225 649 229 649 233C649 238 645 242 641 242C636 242 632 238 632 233C632 229 636 225 641 225ZM620 205C618 205 618 190 624 181C630 172 658 174 677 175C696 176 725 178 749 175C773 172 788 201 783 233C778 265 775 296 783 327C794 367 782 451 758 469C750 475 739 469 733 467C727 465 694 467 678 464C662 461 650 463 634 463C618 463 621 442 621 442L649 440C649 440 669 374 669 315C669 256 652 205 652 205Z" glyph-name="uni261B" horiz-adv-x="835" unicode="&#9755;" /><glyph d="M529 569H417L261 30L289 29L129 569H12L202 0H340ZM236 14H322V81H236Z" glyph-name="v" horiz-adv-x="542" unicode="v" /><glyph d="M426 569H347L225 18L249 17L122 569H12L165 0H303ZM371 569 496 0H635L785 569H679L558 18L583 13L457 569ZM196 7H282V39H196ZM526 8H612V40H526ZM366 498H452V553H366Z" glyph-name="w" horiz-adv-x="789" unicode="w" /><glyph d="M415 0H529L308 322L299 327L139 569H24L233 259L242 253ZM122 0 278 240 216 309 4 0ZM305 257 514 569H399L255 326ZM216 239H302L324 342H238Z" glyph-name="x" horiz-adv-x="533" unicode="x" /><glyph d="M236 -26H322V41H236ZM529 569H418L269 36H292L129 569H12L207 6C214 -13 217 -36 217 -55C217 -97 198 -140 150 -140C116 -140 75 -124 69 -38C68 -31 68 -24 68 -17L-17 -32C-17 -40 -17 -47 -17 -57C-9 -187 68 -221 143 -221C254 -221 296 -150 342 -9Z" glyph-name="y" horiz-adv-x="542" unicode="y" /><glyph d="M439 569 53 31V0H146L532 537V569ZM79 484H472V569H79ZM121 0H530V85H119Z" glyph-name="z" horiz-adv-x="564" unicode="z" /><glyph d="M691 380V386C691 664 560 789 375 789C190 789 60 664 60 386V380C60 108 190 -15 375 -15C560 -15 691 122 691 380ZM574 380C574 174 503 79 375 79C261 79 176 174 176 380V386C176 626 261 696 375 696C491 696 574 613 574 386Z" glyph-name="zero" horiz-adv-x="751" unicode="0" /></font>
</defs>
</svg>
