<svg xmlns="http://www.w3.org/2000/svg">
<defs>
<font horiz-adv-x="0" id="font"><font-face ascent="893" bbox="-92 -261 1106 933" cap-height="750" descent="-250" font-family="Piegnot" units-per-em="1000" x-height="500" /><missing-glyph d="M67 -49 64 -48C115 62 168 174 255 263C271 280 286 290 298 297L300 302C306 330 315 360 311 389C267 350 226 306 189 260L180 249L269 458C279 483 291 511 293 538C231 494 175 442 125 386L115 374L224 569C248 613 274 657 296 705C301 719 308 734 305 748C243 704 183 652 127 599L125 603C182 656 242 707 305 751L306 753L308 751C313 734 306 719 300 704C277 657 252 611 226 567L134 400C182 453 236 500 294 543L296 545V541C294 512 282 483 271 456L194 270C230 314 271 357 313 395L315 398V395C318 362 310 330 303 302L301 299C315 306 327 308 335 306C349 306 364 301 381 290C388 285 395 280 400 273C412 258 409 236 400 220C390 205 375 193 361 185C330 164 296 152 260 145L257 144L296 294C286 287 272 277 257 261C172 173 119 60 67 -49ZM301 296 262 149C296 156 329 169 359 188C371 195 388 207 397 222C405 236 407 256 397 272C393 278 387 284 380 287C363 297 349 302 335 302C327 304 315 302 301 296ZM332 94C264 94 199 103 151 121C103 139 76 162 76 186C76 212 103 236 151 253C199 270 264 280 332 280C400 280 463 270 511 253C561 236 588 212 588 186C588 162 561 139 511 121C463 103 400 94 332 94ZM332 277C192 277 79 236 79 186C79 137 192 98 332 98C470 98 585 137 585 186C585 236 470 277 332 277ZM400 598C400 598 400 598 400 598H399V640H402V601C407 603 410 610 410 611C416 620 417 630 419 640C419 645 419 652 416 656C412 663 404 664 397 663C392 659 387 652 388 645H385C383 652 388 663 397 666C404 669 414 666 419 659C422 652 422 645 422 640C421 630 419 620 414 610C412 606 409 598 400 598ZM462 603V647H465V618C469 628 470 639 470 651C470 652 469 656 467 656V659C470 659 472 657 474 651C474 637 472 622 465 610ZM393 447C381 447 370 451 363 459C352 470 351 485 351 499C347 533 347 567 349 599H352C351 567 351 533 354 499C354 487 356 471 366 461C375 453 390 447 405 451C421 456 434 466 443 473C462 488 474 506 477 523L480 521C475 504 463 4
<glyph d="M733 5 708 10C663 19 648 33 622 102L373 755L317 642L515 102C541 31 521 22 459 10L434 5V-3C598 2 598 2 733 -3ZM10 5V-3C114 2 114 2 249 -3V5L224 10C162 22 145 30 168 102L349 669L373 755H352L121 102C96 32 80 19 35 10ZM221 325H475V353H221Z" glyph-name="A" horiz-adv-x="743" unicode="A" /><glyph d="M102 39V716H195V39ZM279 23 290 0H31V8L56 13C98 22 102 30 102 105L195 104C195 41 212 23 279 23ZM195 750V645H102C102 721 98 728 56 737L31 742V750ZM162 750H233C427 750 525 681 525 572C525 468 426 389 269 389L278 408C353 415 420 466 420 560C420 646 355 723 222 723H162ZM352 401C352 401 577 381 577 208C577 87 474 0 290 0L236 23H292C391 23 470 66 470 199C470 380 290 382 290 382ZM163 387V405L321 409L339 380Z" glyph-name="B" horiz-adv-x="617" unicode="B" /><glyph d="M145 368C145 157 264 8 433 8C565 8 648 72 668 189H685L673 57C628 17 518 -16 428 -16C207 -16 35 151 35 364C35 591 198 762 415 762C576 762 658 686 658 686C658 686 668 564 668 564H650C650 564 624 738 420 738C255 738 145 590 145 368Z" glyph-name="C" horiz-adv-x="720" unicode="C" /><glyph d="M115 39H208V716H115ZM271 750C582 750 748 595 748 382C748 155 578 0 271 0V25C522 25 638 156 638 378C638 589 524 725 271 725ZM208 750H31V742L56 737C107 727 115 719 115 645H208ZM208 105H115C115 31 107 23 56 13L31 8V0H208ZM186 0H271V25H186ZM186 725H271V750H186Z" glyph-name="D" horiz-adv-x="783" unicode="D" /><glyph d="M112 39H205V716H112ZM173 376 391 372C465 371 481 372 493 310L498 285H510C504 384 504 384 510 482H498L493 461C478 399 465 400 391 399L173 395ZM558 170 547 174C511 73 445 27 366 24L291 21C208 18 205 31 205 105H112C112 31 109 24 56 13L31 8V0H369C451 0 475 -1 511 -9ZM31 742 56 737C109 726 112 719 112 645L205 671C205 719 216 730 259 729L327 728C452 726 475 690 479 575H488L504 752L501 753L432 750H31Z" glyph-name="E" horiz-adv-x="588" unicode="E" /><glyph d="M220 815C322 834 396 863 412 933C444 926 457 911 457 896C457 824 326 816 219 807ZM112 39H205V716H112ZM173 376 391 372C465 371 481 372 493 310L498 285H510C504 384 504 384 510 482H498L493 461C478 399 465 400 391 399L173 395ZM558 170 547 174C511 73 445 27 366 24L291 21C208 18 205 31 205 105H112C112 31 109 24 56 13L31 8V0H369C451 0 475 -1 511 -9ZM31 742 56 737C109 726 112 719 112 645L205 671C205 719 216 730 259 729L327 728C452 726 475 690 479 575H488L504 752L501 753L432 750H31Z" glyph-name="Eacute" horiz-adv-x="588" unicode="&#201;" /><glyph d="M112 39H205V716H112ZM31 742 56 737C109 726 112 719 112 645L205 647C205 719 216 730 259 729L327 728C452 726 475 690 479 575H488L504 752L501 753L432 750H31ZM292 8 261 14C217 22 205 31 205 105H112C112 31 109 22 66 13L41 8V0H292ZM173 376 391 372C465 371 481 372 493 310L498 285H510C504 384 504 384 510 482H498L493 461C478 399 465 400 391 399L173 395Z" glyph-name="F" horiz-adv-x="547" unicode="F" /><glyph d="M145 368C145 157 264 8 451 8C571 8 597 48 597 115L690 190V38C639 13 551 -16 441 -16C207 -16 35 151 35 364C35 591 198 762 415 762C576 762 658 686 658 686C658 686 668 564 668 564H650C650 564 624 738 420 738C255 738 145 590 145 368ZM511 277V288H762V277L737 272C694 263 690 255 690 180V152L597 88V180C597 249 589 262 542 271Z" glyph-name="G" horiz-adv-x="781" unicode="G" /><glyph d="M105 39H198V716H105ZM282 5 251 11C207 19 198 28 198 102H105C105 28 99 19 56 10L31 5V-3C152 2 152 2 282 -3ZM282 745V753C153 748 153 748 31 753V745L56 740C99 731 105 722 105 648H198C198 722 207 731 251 739ZM676 39V716H583V39ZM181 377H605V405H181ZM499 5V-3C629 2 629 2 750 -3V5L725 10C682 19 676 28 676 102H583C583 28 574 19 530 11ZM499 745 530 739C574 731 583 722 583 648H676C676 722 682 731 725 740L750 745V753C628 748 628 748 499 753Z" glyph-name="H" horiz-adv-x="781" unicode="H" /><glyph d="M115 39H208V716H115ZM31 753V745L56 740C107 730 115 722 115 648H208C208 722 216 730 267 740L292 745V753C161 748 161 748 31 753ZM31 -3C164 2 164 2 292 -3V5L267 10C216 20 208 28 208 102H115C115 28 107 20 56 10L31 5Z" glyph-name="I" horiz-adv-x="323" unicode="I" /><glyph d="M31 753V745L56 740C107 730 115 722 115 648H208C208 722 216 730 267 740L292 745V753C161 748 161 748 31 753ZM115 107C115 -155 112 -210 48 -210C-5 -210 -13 -167 -55 -167C-83 -167 -92 -181 -92 -196C-92 -218 -74 -253 -5 -253C114 -253 208 -120 208 111V716H115Z" glyph-name="J" horiz-adv-x="323" unicode="J" /><glyph d="M105 39H198V716H105ZM282 5 251 11C207 19 198 28 198 102H105C105 28 99 19 56 10L31 5V-3C152 2 152 2 282 -3ZM282 745V753C153 748 153 748 31 753V745L56 740C99 731 105 722 105 648H198C198 722 207 731 251 739ZM718 5 693 10C650 19 613 49 560 102L240 424L180 374L448 102C500 49 523 19 479 11L448 5V-3C585 2 585 2 718 -3ZM647 744V752C559 747 559 747 457 752V744L488 738C532 730 511 699 458 647L180 372H213L490 647C543 700 579 730 622 739Z" glyph-name="K" horiz-adv-x="728" unicode="K" /><glyph d="M115 39H208V716H115ZM581 170 570 174C534 73 468 23 389 22L276 21C211 20 208 31 208 91L115 105C115 31 112 21 59 10L34 5V-3C129 0 133 0 228 0H355C454 0 477 -3 534 -9ZM31 753V745L56 740C107 730 115 722 115 648H208C208 722 216 730 267 740L292 745V753C161 748 161 748 31 753Z" glyph-name="L" horiz-adv-x="611" unicode="L" /><glyph d="M729 648 742 102C744 28 732 19 688 11L657 5V-3C798 2 798 2 913 -3V5L888 10C845 19 840 28 838 102L823 648C821 722 846 731 889 740L914 745V753C808 749 803 750 728 750ZM178 645 214 750C138 750 138 750 60 753V745L85 740C128 731 156 719 151 645L112 82C108 28 97 19 54 10L29 5V-3C132 2 132 2 247 -3V5L216 11C172 19 160 28 162 82ZM166 732 159 658 453 9H467L737 669L728 750L476 137L500 136L214 750Z" glyph-name="M" horiz-adv-x="933" unicode="M" /><glyph d="M168 645 187 750C96 750 96 750 20 753V745L45 740C88 731 115 705 141 661L132 82C131 28 117 19 74 10L49 5V-3C158 2 158 2 270 -3V5L239 11C195 19 187 28 185 82ZM683 136 187 750 152 732 149 658 696 -21H705L715 668C716 722 730 731 773 740L798 745V753C696 748 696 748 585 753V745L616 739C660 731 670 722 670 668L672 105Z" glyph-name="N" horiz-adv-x="821" unicode="N" /><glyph d="M415 735C255 735 145 590 145 368C145 157 264 11 428 11C589 11 698 156 698 378C698 589 578 735 415 735ZM415 762C636 762 808 595 808 382C808 155 645 -16 428 -16C207 -16 35 151 35 364C35 591 198 762 415 762Z" glyph-name="O" horiz-adv-x="843" unicode="O" /><glyph d="M102 39V716H195V39ZM287 5V-3C148 2 148 2 31 -3V5L56 10C98 19 102 27 102 102H195C195 33 208 20 256 11ZM195 750V645H102C102 721 98 728 56 737L31 742V750ZM162 750H246C458 750 565 661 565 526C565 430 507 332 349 332C278 332 217 355 169 395L178 412C217 387 259 357 331 357C429 357 460 448 460 513C460 626 395 724 223 724H162Z" glyph-name="P" horiz-adv-x="605" unicode="P" /><glyph d="M328 -4 537 14 878 -183 875 -192ZM415 735C255 735 145 590 145 368C145 157 264 11 428 11C589 11 698 156 698 378C698 589 578 735 415 735ZM415 762C636 762 808 595 808 382C808 155 645 -16 428 -16C207 -16 35 151 35 364C35 591 198 762 415 762Z" glyph-name="Q" horiz-adv-x="843" unicode="Q" /><glyph d="M102 39V716H195V39ZM195 750V645H102C102 721 98 728 56 737L31 742V750ZM162 750H233C427 750 525 681 525 562C525 452 426 373 269 373L278 392C362 399 420 450 420 550C420 646 355 724 226 724H162ZM163 375V393L321 397L300 369ZM354 397 504 160C545 95 583 14 664 5V-3C604 0 603 0 547 0C498 0 480 9 455 53L270 380ZM282 5V-3C148 2 148 2 31 -3V5L56 10C98 19 102 27 102 102H195C195 33 203 20 251 11Z" glyph-name="R" horiz-adv-x="658" unicode="R" /><glyph d="M280 738C397 738 423 604 423 604H438L428 726C428 726 362 760 290 760C170 760 94 673 94 576C94 379 396 313 396 142C396 57 345 6 264 6C153 6 96 98 61 248L47 245L83 11C83 11 154 -17 256 -17C397 -17 478 61 478 191C478 372 170 479 170 624C170 692 212 738 280 738Z" glyph-name="S" horiz-adv-x="525" unicode="S" /><glyph d="M366 711H273V34H366ZM470 -3V5L445 10C374 24 366 28 366 102L273 101C273 27 265 20 194 9L169 5V-3C318 2 318 2 470 -3ZM333 750H77C54 750 42 754 28 768H26L10 615L21 613C37 674 53 730 142 730H192C265 730 273 719 273 659H333ZM306 750V659H366C366 719 374 730 447 730H497C586 730 602 674 618 613L629 615L613 768H611C597 754 585 750 562 750Z" glyph-name="T" horiz-adv-x="639" unicode="T" /><glyph d="M105 219 198 259V716H105ZM282 745V753C153 748 153 748 31 753V745L56 740C99 731 105 722 105 648H198C198 722 207 731 251 739ZM676 39V716H583V39ZM583 0C661 1 690 -1 750 -3V5L725 10C682 19 676 28 676 102H583ZM499 745 530 739C574 731 583 722 583 648H676C676 722 682 731 725 740L750 745V753C628 748 628 748 499 753ZM604 428 583 338C583 119 487 17 357 17C244 17 198 88 198 259L105 219C105 68 189 -10 345 -10C507 -10 604 103 604 428Z" glyph-name="U" horiz-adv-x="781" unicode="U" /><glyph d="M10 745 35 740C80 731 94 717 121 648L372 -5L428 108L228 648C202 719 222 728 284 740L309 745V753C154 748 154 748 10 753ZM733 745V753C622 748 622 748 494 753V745L519 740C581 728 598 720 575 648L396 81L372 -5H393L622 648C647 718 663 731 708 740Z" glyph-name="V" horiz-adv-x="743" unicode="V" /><glyph d="M9 745 34 740C79 731 99 718 130 648L421 -5L474 115L237 648C206 718 221 732 263 740L288 745V753C150 748 150 748 9 753ZM812 745V753C709 748 709 748 603 753V745L628 740C670 732 680 718 654 648L445 81L421 -5H442L701 648C728 717 752 733 787 740ZM323 745 342 742C378 736 394 718 424 648L705 -5L758 115L531 648C501 719 520 737 542 741L562 745V753C444 748 444 748 323 753ZM1106 745V753C992 748 992 748 877 753V745L902 740C954 730 964 717 938 648L729 81L705 -5H726L985 648C1012 717 1036 731 1081 740Z" glyph-name="W" horiz-adv-x="1116" unicode="W" /><glyph d="M275 648C235 709 242 728 304 740L329 745V753C174 748 174 748 30 753V745L55 740C100 731 126 713 168 648L526 100C566 38 568 20 506 8L481 3V-5C636 0 636 0 780 -5V3L755 8C710 17 675 36 633 101ZM373 385 163 101C118 40 86 17 41 8L16 3V-5C140 0 150 0 255 -5V3L230 8C168 20 169 39 210 100L387 368ZM545 648 390 388 403 373 592 648C636 711 660 731 705 740L730 745V753C618 748 618 748 491 753V745L516 740C578 728 583 711 545 648Z" glyph-name="X" horiz-adv-x="790" unicode="X" /><glyph d="M334 39H427V397H334ZM230 -3C380 2 380 2 531 -3V5L506 10C435 24 427 28 427 102H334C334 28 326 24 255 10L230 5ZM10 745 35 740C80 731 106 714 151 648L372 325L416 406L248 648C204 711 212 728 274 740L299 745V753C158 748 158 748 10 753ZM733 745V753C612 748 612 748 494 753V745L519 740C581 728 584 714 546 648L405 400L372 325H393L593 648C634 714 663 731 708 740Z" glyph-name="Y" horiz-adv-x="743" unicode="Y" /><glyph d="M451 735 34 9 40 0H364C419 0 458 -2 526 -9L601 206L583 210C529 89 484 35 359 31L130 24L145 18L558 743L555 750H168C130 750 114 766 118 781H105L35 586H49L67 622C105 698 147 722 218 723L493 728Z" glyph-name="Z" horiz-adv-x="595" unicode="Z" /><glyph d="M313 243 312 227C204 227 138 156 138 89C138 59 153 46 180 46C257 46 288 106 288 106L294 94C250 28 185 -10 123 -10C75 -10 44 11 44 58C44 146 172 243 313 243ZM283 365C285 450 265 487 219 487C169 487 131 420 128 357L38 342C56 432 142 510 249 510C326 510 369 475 366 384L358 112C357 65 364 39 393 39C427 39 444 74 444 74L453 70C453 70 430 -10 352 -10C302 -10 273 22 275 83Z" glyph-name="a" horiz-adv-x="461" unicode="a" /><glyph d="M370 483C235 483 75 290 75 161C75 121 98 99 134 99C237 99 428 278 412 409C428 453 408 483 370 483ZM154 181C154 300 292 452 373 452C394 452 402 434 402 412C402 325 277 149 182 149C164 149 154 161 154 181ZM414 421 398 356 355 262C355 262 304 166 304 122C304 109 309 101 325 101C375 101 439 162 481 223L472 228C451 204 403 163 386 163C379 163 380 169 381 172L506 474L459 513L454 512Z" glyph-name="at" horiz-adv-x="593" unicode="@" /><glyph d="M272 510C124 510 30 390 30 242C30 89 126 -10 265 -10C408 -10 446 97 446 97L441 102C441 102 388 43 296 43C191 43 121 130 121 271C121 397 166 480 266 480C337 480 375 447 393 371H407L412 464C372 495 328 510 272 510Z" glyph-name="c" horiz-adv-x="481" unicode="c" /><glyph d="M124 106C232 106 240 -146 -26 -146V-141C-26 -141 116 -136 116 -25C116 16 95 33 57 33C57 33 53 106 124 106Z" glyph-name="comma" horiz-adv-x="242" unicode="," /><glyph d="M390 298 438 461C388 490 344 512 280 512C141 512 30 392 30 230C30 96 130 -10 238 -10C369 -10 426 97 426 97C426 97 419 124 419 124C419 124 397 47 292 47C184 47 112 137 112 278C112 397 172 480 262 480C353 480 390 412 390 298ZM473 893 469 895 333 862V858L373 830C386 821 390 813 390 787V66L395 60L415 -9L419 -11L540 32V36L495 59C477 68 473 77 473 107Z" glyph-name="d" horiz-adv-x="548" unicode="d" /><glyph d="M235 510C116 510 30 395 30 242C30 83 111 -10 248 -10C363 -10 386 43 386 43L381 48C381 48 344 29 286 29C179 29 121 126 121 271C121 407 163 480 227 480C279 480 306 434 295 356L312 367L104 359L100 343L382 339C392 450 338 510 235 510Z" glyph-name="e" horiz-adv-x="431" unicode="e" /><glyph d="M398 156C398 75 352 7 263 7C174 7 124 82 124 177C124 275 170 336 266 395L256 402C159 361 59 287 59 171C59 32 169 -15 262 -15C367 -15 482 55 482 187C482 400 151 467 151 631C151 705 199 750 273 750C351 750 387 675 387 602C387 482 289 425 289 425L299 415C299 415 445 468 445 597C445 690 380 767 274 767C165 767 80 686 80 576C80 371 398 348 398 156Z" glyph-name="eight" horiz-adv-x="541" unicode="8" /><glyph glyph-name="emacron" horiz-adv-x="500" unicode="&#275;" /><glyph d="M110 150 80 510C67 672 59 762 116 762C173 762 165 672 152 510L122 150ZM116 -4C153 -4 172 20 172 49C172 78 153 102 116 102C80 102 60 78 60 49C60 20 80 -4 116 -4Z" glyph-name="exclam" horiz-adv-x="232" unicode="!" /><glyph d="M98 527V59H181V534C181 734 202 840 294 840C347 840 363 807 405 807C423 807 433 821 433 836C433 858 415 893 346 893C227 893 98 758 98 527ZM139 469H275V500H139ZM31 477 105 459H130V510H102L31 485ZM256 5 235 10C192 20 181 28 181 102H98C98 28 95 19 52 10L27 5V-3C139 2 139 2 256 -3Z" glyph-name="f" horiz-adv-x="315" unicode="f" /><glyph d="M170 550H379L353 474H141L164 500L128 420L143 463C269 376 339 282 339 144C339 -25 191 -181 34 -210L32 -197C41 -195 254 -137 254 127C254 255 181 331 96 388L92 393Z" glyph-name="five" horiz-adv-x="425" unicode="5" /><glyph d="M471 -159V591L388 498V-210ZM17 70H607L638 137H71L17 81ZM17 81 31 70 471 591H456Z" glyph-name="four" horiz-adv-x="629" unicode="4" /><glyph d="M266 173C165 173 91 242 91 340C91 443 163 515 263 515C363 515 437 446 438 348C437 245 366 173 266 173ZM350 312C350 428 305 500 252 500C214 500 179 457 179 377C179 258 224 188 277 188C316 188 350 232 350 312ZM167 212 176 206 102 163 133 193C119 140 160 128 232 107L281 93C364 69 463 46 463 -45C463 -179 307 -261 172 -261C92 -261 -19 -225 -19 -135C-19 -14 196 52 196 52L210 49C114 11 51 -61 51 -135C51 -192 103 -240 189 -240C311 -240 407 -171 407 -92C407 -39 372 -19 273 8L240 17C195 29 163 39 133 52C48 89 54 149 72 193ZM361 480 495 510 496 451 358 461Z" glyph-name="g" horiz-adv-x="500" unicode="g" /><glyph d="M178 895 32 862V858L82 830C96 822 99 813 99 787V59H182V407V893ZM249 5 228 10C185 20 182 28 182 102H99C99 28 96 19 53 10L28 5V-3C140 2 140 2 249 -3ZM473 58V348C473 453 421 510 339 510C249 510 181 414 181 414H153L176 377C176 377 227 457 305 457C358 457 390 423 390 342V58ZM323 5V-3C434 2 434 2 544 -3V5L519 10C476 19 473 28 473 102H390C390 28 387 20 344 10Z" glyph-name="h" horiz-adv-x="566" unicode="h" /><glyph d="M304 413H124C75 413 73 407 69 303H76C89 357 106 357 132 357H311C363 357 365 363 368 467H361C349 413 332 413 304 413Z" glyph-name="hyphen" horiz-adv-x="441" unicode="-" /><glyph d="M139 762C176 762 193 785 193 815C193 845 176 868 139 868C103 868 85 845 85 815C85 785 103 762 139 762ZM254 5 233 10C190 20 179 28 179 102H96C96 28 85 19 42 10L17 5V-3C137 2 137 2 254 -3ZM175 517 39 464V460L79 432C92 423 96 415 96 389V56H179V515Z" glyph-name="i" horiz-adv-x="284" unicode="i" /><glyph d="M177 895 31 862V858L81 830C95 822 98 813 98 787V59H181V893ZM248 5 227 10C184 20 181 28 181 102H98C98 28 95 19 52 10L27 5V-3C139 2 139 2 248 -3Z" glyph-name="l" horiz-adv-x="278" unicode="l" /><glyph d="M443 61V358C443 453 399 510 328 510C242 510 183 414 183 414H153L176 377C176 377 221 457 287 457C333 457 360 423 360 352V61ZM707 61V358C707 453 663 510 592 510C506 510 447 414 447 414H417L440 377C440 377 485 457 551 457C597 457 624 423 624 352V61ZM96 399V59H179V407L176 411L166 515L162 517L39 464V460L79 432C92 423 96 415 96 389ZM244 5 223 10C180 20 179 28 179 102H96C96 28 93 19 50 10L25 5V-3C137 2 137 2 244 -3ZM508 5 487 10C444 20 443 28 443 102H360C360 28 357 19 314 10L289 5V-3C401 2 401 2 508 -3ZM772 5 751 10C708 20 707 28 707 102H624C624 28 621 19 578 10L553 5V-3C665 2 665 2 772 -3Z" glyph-name="m" horiz-adv-x="794" unicode="m" /><glyph d="M246 5 225 10C182 20 179 28 179 102H96C96 28 93 19 50 10L25 5V-3C137 2 137 2 246 -3ZM473 58V348C473 453 421 510 339 510C249 510 181 414 181 414H153L176 377C176 377 227 457 305 457C358 457 390 423 390 342V58ZM162 517 39 464V460L79 432C92 423 96 415 96 389V56H179V407L176 411L166 515ZM323 5V-3C434 2 434 2 544 -3V5L519 10C476 19 473 28 473 102H390C390 28 387 20 344 10Z" glyph-name="n" horiz-adv-x="566" unicode="n" /><glyph d="M90 -220C237 -190 470 -3 470 276C470 447 420 533 311 533C229 533 174 464 174 343C174 262 217 168 307 168C352 168 382 182 407 196L410 188C387 168 337 139 280 139C147 139 83 245 83 329C83 465 182 550 312 550C466 550 564 442 564 280C564 -11 293 -198 90 -228Z" glyph-name="nine" horiz-adv-x="641" unicode="9" /><glyph d="M266 -10C128 -10 30 95 30 244C30 401 124 510 261 510C398 510 496 405 497 256C496 99 402 -10 266 -10ZM409 201C409 363 340 481 245 481C171 481 118 406 118 300C118 135 186 19 283 19C357 19 409 95 409 201Z" glyph-name="o" horiz-adv-x="527" unicode="o" /><glyph d="M131 13 90 8V-3C237 2 237 2 387 -3V8L346 13C284 21 280 31 280 105V442C280 516 284 530 344 537L387 542V553C237 548 237 548 90 553V542L129 537C193 529 197 516 197 442V105C197 31 193 21 131 13Z" glyph-name="one" horiz-adv-x="477" unicode="1" /><glyph d="M121 -4C158 -4 177 20 177 49C177 78 158 102 121 102C85 102 65 78 65 49C65 20 85 -4 121 -4Z" glyph-name="period" horiz-adv-x="242" unicode="." /><glyph d="M60 287H484V305H60ZM281 71V515H259V71Z" glyph-name="plus" horiz-adv-x="544" unicode="+" /><glyph d="M136 -4C173 -4 192 20 192 49C192 78 173 102 136 102C100 102 80 78 80 49C80 20 100 -4 136 -4ZM130 136 97 377H150C258 377 330 426 330 509C330 699 196 703 104 677L77 753C231 760 377 642 377 477C377 380 326 313 198 313L144 312L142 136Z" glyph-name="question" horiz-adv-x="500" unicode="?" /><glyph d="M345 406H350C350 406 380 513 295 513C242 513 209 456 180 408H161L169 371C195 404 227 438 279 438C321 438 345 406 345 406ZM251 5 230 10C187 20 176 28 176 102H93C93 28 80 19 47 10L22 5V-3C134 2 134 2 251 -3ZM176 397 173 401 163 515 159 517 36 464V460L76 432C89 423 93 415 93 389V59H176Z" glyph-name="r" horiz-adv-x="390" unicode="r" /><glyph d="M198 510C110 510 52 458 52 380C52 242 257 188 257 86C257 35 231 11 176 11C101 11 65 64 41 145L27 142L51 4C51 4 99 -10 168 -10C263 -10 318 38 318 119C318 273 114 320 114 427C114 466 138 488 184 488C283 488 290 394 290 394L301 395L297 487C297 487 256 510 198 510Z" glyph-name="s" horiz-adv-x="352" unicode="s" /><glyph d="M135 -210H164L507 548L504 550H82L32 392H50L62 416C87 467 113 474 159 474H460L455 496Z" glyph-name="seven" horiz-adv-x="527" unicode="7" /><glyph d="M546 754C399 724 166 537 166 258C166 87 216 1 325 1C407 1 462 70 462 191C462 272 419 366 329 366C284 366 254 352 229 338L226 346C249 366 299 395 356 395C489 395 553 289 553 205C553 69 454 -16 324 -16C170 -16 72 92 72 254C72 545 343 732 546 762Z" glyph-name="six" horiz-adv-x="599" unicode="6" /><glyph d="M73 -210H95L415 856H393Z" glyph-name="slash" horiz-adv-x="500" unicode="/" /><glyph glyph-name="space" horiz-adv-x="289" unicode=" " /><glyph d="M136 201C334 336 360 388 360 435C360 500 315 550 242 550C170 550 119 505 78 439L83 433C127 473 159 485 200 485C256 485 283 443 283 400C283 364 278 327 131 208ZM185 251 136 201C136 201 324 225 324 38C324 -133 193 -184 132 -184C79 -184 48 -162 48 -162C48 -162 29 -210 106 -210C275 -210 395 -36 395 102C395 254 237 267 185 251Z" glyph-name="three" horiz-adv-x="495" unicode="3" /><glyph d="M43 0H478L528 158H510L498 134C473 83 447 76 401 76H127L43 5ZM53 1 199 135C372 294 400 359 400 414C400 491 347 550 261 550C175 550 115 497 66 419L72 412C125 459 169 481 218 481C284 481 316 432 316 381C316 338 300 290 173 149L43 5Z" glyph-name="two" horiz-adv-x="539" unicode="2" /><glyph d="M76 399V142C76 47 120 -10 201 -10C290 -10 360 86 360 86H386L363 123C363 123 318 43 242 43C186 43 159 77 159 148V505L155 507L9 474V470L59 442C73 434 76 425 76 399ZM443 505 439 507 293 474V470L343 442C357 434 360 425 360 399V93L363 89L373 -5L377 -7L510 26V30L460 58C446 66 443 75 443 101Z" glyph-name="u" horiz-adv-x="532" unicode="u" /><glyph d="M428 397C452 467 455 480 498 490L519 495V503C441 498 441 498 348 503V495L373 490C416 481 417 468 395 397L286 52L308 68L195 397C170 469 169 481 212 490L237 495V503C121 498 121 498 6 503V495L27 490C70 480 74 468 102 397L268 -29H282Z" glyph-name="v" horiz-adv-x="525" unicode="v" /><glyph d="M678 398C705 469 705 480 748 490L769 495V503C700 498 700 498 623 503V495L648 490C671 485 669 468 645 398L526 52L542 68L382 398C349 465 350 481 393 490L418 495V503C299 498 299 498 187 503V495L203 490C247 476 256 465 289 398L502 -29H516ZM142 501C83 498 83 498 6 501V493L25 490C54 485 67 468 103 397L316 -29H330L440 248L422 279L337 52L356 68ZM436 182 520 398C547 468 547 482 580 490L601 495V503C531 498 531 498 450 503V495L475 490C509 483 513 467 487 398L418 214Z" glyph-name="w" horiz-adv-x="775" unicode="w" /><glyph d="M304 490 38 6 42 0H306C368 0 387 -3 415 -6L465 138L453 141L435 109C416 74 370 25 303 23L131 18L141 12L396 495L394 500H114C81 500 84 517 86 541H72L25 390H38L50 414C75 465 101 475 134 476L332 483Z" glyph-name="z" horiz-adv-x="474" unicode="z" /><glyph d="M345 -10C198 -10 70 118 70 275C70 432 198 560 345 560C492 560 620 432 620 275C620 118 492 -10 345 -10ZM345 43C468 43 558 142 558 275C558 408 468 507 345 507C222 507 132 408 132 275C132 142 222 43 345 43Z" glyph-name="zero" horiz-adv-x="690" unicode="0" /></font>
</defs>
</svg>
