<?xml version="1.0" encoding="UTF-8"?>
<svg width="1000" height="1000" viewBox="0 0 1000 1000" version="1.1" xmlns="http://www.w3.org/2000/svg" xmlns:xlink="http://www.w3.org/1999/xlink">
 <path d="M26.28,39.37 l-20.6,0 c-1.13,0,-2.08,0.38,-2.85,1.15 c-0.77,0.77,-1.15,1.7,-1.15,2.79 c-0.0,1.16,0.38,2.1,1.15,2.84 c0.77,0.74,1.72,1.1,2.85,1.1 l3.63,0 c3.09,0,5.93,0.75,8.51,2.26 c2.59,1.5,4.64,3.55,6.17,6.15 c1.53,2.59,2.29,5.44,2.29,8.53 l0,1.27 c0.0,1.2,0.39,2.18,1.18,2.96 c0.79,0.78,1.75,1.16,2.88,1.16 c1.2,0,2.18,-0.39,2.96,-1.16 c0.78,-0.78,1.16,-1.76,1.16,-2.96 l0,-65.46 l-8.19,0 Z M26.28,7.89 l0.98,0 l0,-7.89 l-0.98,0 Z M33.49,7.89 l0.98,0 l0,-7.89 l-0.98,0 Z M33.49,7.89" fill="rgb(58,181,91)" transform="matrix(1,0,0,-1,692.6064375,160.3250138990103)"/>
 <path d="M5.68,19.39 c0,3.67,0.84,6.98,2.53,9.93 c1.69,2.95,4.03,5.25,7.02,6.9 c2.99,1.65,6.37,2.48,10.13,2.48 l0.75,0 c3.38,0,6.2,1.04,8.44,3.13 c2.25,2.09,3.37,4.72,3.37,7.9 c0,3.18,-1.16,5.81,-3.48,7.88 c-2.32,2.08,-5.32,3.12,-9.02,3.12 l-19.08,0 l0,7.87 l19.65,0 c3.97,0,7.52,-0.82,10.64,-2.45 c3.12,-1.63,5.56,-3.89,7.32,-6.78 c1.76,-2.88,2.64,-6.1,2.64,-9.64 c0,-3.54,-0.86,-6.75,-2.59,-9.61 c-1.73,-2.86,-4.12,-5.11,-7.17,-6.74 c-3.05,-1.63,-6.44,-2.44,-10.16,-2.44 l-0.87,0 c-3.42,0,-6.27,-1.09,-8.53,-3.26 c-2.27,-2.17,-3.4,-4.92,-3.4,-8.22 c0,-3.31,1.1,-6.06,3.31,-8.24 c2.21,-2.19,4.98,-3.28,8.31,-3.28 l20.43,0 l0,-7.93 l-40.25,0 Z M5.68,19.39" fill="rgb(58,181,91)" transform="matrix(1,0,0,-1,845.1967790697398,316.98388671875)"/>
 <path d="M5.0,7.75 l25.14,0 c2.43,0.0,4.36,0.66,5.8,1.97 c1.44,1.31,2.15,2.99,2.15,5.03 c0,1.91,-0.67,3.5,-2.02,4.77 c-1.35,1.27,-3.1,1.9,-5.25,1.9 l-6.4,0 c-2.67,0,-5.08,0.59,-7.23,1.77 c-2.15,1.18,-3.85,2.79,-5.09,4.83 c-1.24,2.04,-1.86,4.26,-1.86,6.65 c0,2.42,0.62,4.63,1.86,6.64 c1.24,2.01,2.94,3.6,5.09,4.78 c2.15,1.18,4.56,1.77,7.23,1.77 l6.4,0 c2.16,0,3.91,0.62,5.25,1.86 c1.35,1.24,2.02,2.77,2.02,4.59 c0,1.89,-0.72,3.45,-2.15,4.68 c-1.44,1.23,-3.37,1.85,-5.8,1.85 l-25.14,0 l0,7.75 l25.87,0 c3.03,0,5.75,-0.64,8.16,-1.93 c2.41,-1.29,4.28,-3.01,5.62,-5.18 c1.33,-2.16,2.0,-4.54,2.0,-7.11 c0,-2.55,-0.66,-4.9,-1.98,-7.04 c-1.32,-2.14,-3.13,-3.85,-5.43,-5.13 c-2.3,-1.28,-4.86,-1.91,-7.69,-1.91 l-6.46,0 c-1.88,0,-3.41,-0.54,-4.56,-1.63 c-1.16,-1.09,-1.74,-2.42,-1.74,-3.99 c0,-1.55,0.58,-2.87,1.75,-3.97 c1.17,-1.1,2.68,-1.65,4.54,-1.65 l6.46,0 c2.82,0,5.39,-0.64,7.69,-1.93 c2.3,-1.29,4.11,-3.04,5.43,-5.26 c1.32,-2.22,1.98,-4.63,1.98,-7.23 c0,-2.69,-0.67,-5.15,-2.0,-7.38 c-1.33,-2.23,-3.21,-4.0,-5.62,-5.3 c-2.41,-1.3,-5.13,-1.95,-8.16,-1.95 l-25.87,0 Z M5.0,7.75" fill="rgb(58,181,91)" transform="matrix(1,0,0,-1,902.172703125,530.98388671875)"/>
 <path d="M35.84,20.41 l-29.66,0 c-1.4,0,-2.51,0.4,-3.36,1.21 c-0.84,0.8,-1.26,1.79,-1.26,2.96 c0.0,0.7,0.15,1.4,0.46,2.11 c0.31,0.71,0.79,1.46,1.45,2.24 l31.51,38.17 c0.74,0.88,1.47,1.52,2.2,1.9 c0.73,0.39,1.49,0.58,2.28,0.58 c1.25,0,2.29,-0.45,3.13,-1.34 c0.84,-0.9,1.25,-2.06,1.25,-3.5 l0,-36.4 l12.99,0 c1.2,0,2.18,-0.38,2.96,-1.13 c0.78,-0.76,1.16,-1.71,1.16,-2.87 c0,-1.13,-0.39,-2.07,-1.16,-2.81 c-0.78,-0.74,-1.76,-1.12,-2.96,-1.12 l-12.81,0 l0,-20.41 l-8.19,0 Z M27.95,27.72 c2.41,0,4.45,0.84,6.11,2.52 c1.66,1.68,2.49,3.72,2.49,6.14 c0,2.33,-0.83,4.33,-2.49,5.99 c-1.66,1.66,-3.69,2.49,-6.11,2.49 c-2.37,0,-4.39,-0.83,-6.05,-2.49 c-1.66,-1.66,-2.49,-3.65,-2.49,-5.99 c0,-2.41,0.83,-4.46,2.49,-6.14 c1.66,-1.68,3.67,-2.52,6.05,-2.52 Z M27.95,27.72" fill="rgb(58,181,91)" transform="matrix(1,0,0,-1,835.9602790697398,744.98388671875)"/>
 <path d="M5.03,7.93 l20.11,0 c2.45,0,4.67,0.53,6.66,1.58 c1.99,1.06,3.54,2.51,4.66,4.35 c1.11,1.85,1.67,3.94,1.67,6.27 c0,3.49,-1.16,6.37,-3.49,8.65 c-2.32,2.28,-5.26,3.42,-8.82,3.42 l-18.17,0 l0,36.39 l39.74,0 l0,-7.87 l-21.51,0 c-3.04,0,-5.54,-0.98,-7.51,-2.93 c-1.97,-1.95,-2.96,-4.43,-2.96,-7.42 c0,-3.0,1.0,-5.48,2.99,-7.45 c1.99,-1.97,4.49,-2.96,7.48,-2.96 l0.45,0 c3.87,0,7.36,-0.84,10.48,-2.53 c3.12,-1.69,5.56,-4.04,7.33,-7.06 c1.77,-3.02,2.66,-6.45,2.66,-10.3 c0,-3.88,-0.91,-7.34,-2.72,-10.37 c-1.82,-3.03,-4.35,-5.41,-7.59,-7.13 c-3.24,-1.72,-6.87,-2.58,-10.9,-2.58 l-20.57,0 Z M5.03,7.93" fill="rgb(58,181,91)" transform="matrix(1,0,0,-1,687.817453125,901.6427595384897)"/>
 <path d="M27.38,-0.98 c-4.17,0,-8.02,1.02,-11.54,3.07 c-3.52,2.05,-6.31,4.8,-8.35,8.27 c-2.05,3.47,-3.07,7.29,-3.07,11.46 c0.63,4.1,1.99,7.86,4.08,11.26 c2.08,3.4,4.77,6.1,8.07,8.09 c3.3,1.99,6.94,2.98,10.95,2.98 l0.1,0 c4.12,0,7.92,-1.01,11.39,-3.02 c3.48,-2.01,6.23,-4.73,8.25,-8.16 c2.03,-3.43,3.04,-7.16,3.04,-11.18 c0,-4.17,-1.01,-7.99,-3.02,-11.46 c-2.01,-3.47,-4.76,-6.22,-8.23,-8.25 c-3.48,-2.03,-7.3,-3.05,-11.47,-3.05 Z M27.52,12.25 c2.57,0,4.79,0.94,6.66,2.83 c1.87,1.89,2.81,4.13,2.81,6.74 c0,2.61,-0.93,4.85,-2.78,6.71 c-1.85,1.87,-4.08,2.8,-6.69,2.8 c-2.64,-0.0,-4.87,-0.93,-6.71,-2.78 c-1.84,-1.85,-2.76,-4.1,-2.76,-6.73 c0,-2.64,0.92,-4.89,2.76,-6.76 c1.84,-1.87,4.08,-2.81,6.71,-2.81 Z M4.42,21.82 c0,2.33,0.32,4.62,0.95,6.88 c0.63,2.26,1.72,4.67,3.25,7.22 l19.42,32.67 l9.5,0 l-19.67,-33.4 l-8.51,-7.0 l0,-6.38 Z M4.42,21.82" fill="rgb(58,181,91)" transform="matrix(1,0,0,-1,472.061109375,958.98388671875)"/>
 <path d="M18.74,-0.82 c-1.12,0.42,-1.91,1.15,-2.38,2.18 c-0.47,1.03,-0.49,2.16,-0.07,3.38 l18.0,48.89 c0.69,1.9,0.59,3.56,-0.31,4.98 c-0.9,1.42,-2.39,2.13,-4.47,2.13 l-24.27,0 c-1.2,0,-2.19,0.38,-2.99,1.13 c-0.8,0.76,-1.19,1.7,-1.19,2.83 c0,1.13,0.4,2.06,1.19,2.8 c0.8,0.74,1.79,1.1,2.99,1.1 l43.15,0 l-24.51,-66.72 c-0.38,-1.13,-1.06,-1.96,-2.03,-2.49 c-0.97,-0.53,-2.01,-0.6,-3.1,-0.22 Z M18.74,-0.82" fill="rgb(58,181,91)" transform="matrix(1,0,0,-1,257.3352968750001,901.6427595384898)"/>
 <path d="M27.65,-0.98 c-4.04,0,-7.66,0.91,-10.86,2.72 c-3.2,1.81,-5.71,4.31,-7.52,7.5 c-1.81,3.19,-2.72,6.77,-2.72,10.75 l0,28.69 c0,3.97,0.91,7.56,2.72,10.75 c1.81,3.19,4.32,5.68,7.52,7.47 c3.2,1.79,6.82,2.69,10.86,2.69 c4.01,0,7.62,-0.9,10.83,-2.69 c3.2,-1.79,5.71,-4.28,7.52,-7.47 c1.81,-3.19,2.72,-6.77,2.72,-10.75 l0,-28.69 c0,-3.98,-0.91,-7.56,-2.72,-10.75 c-1.81,-3.19,-4.32,-5.69,-7.52,-7.5 c-3.2,-1.81,-6.81,-2.72,-10.83,-2.72 Z M27.65,8.91 c2.69,0,5.0,0.97,6.94,2.92 c1.94,1.95,2.9,4.27,2.9,6.95 c0,1.76,-0.45,3.38,-1.34,4.87 c-0.89,1.49,-2.09,2.69,-3.6,3.6 c-1.51,0.91,-3.14,1.37,-4.9,1.37 c-1.76,0,-3.4,-0.44,-4.92,-1.32 c-1.52,-0.88,-2.73,-2.08,-3.62,-3.6 c-0.89,-1.52,-1.34,-3.16,-1.34,-4.92 c0,-2.69,0.97,-5.0,2.92,-6.95 c1.95,-1.95,4.27,-2.92,6.95,-2.92 Z M27.65,39.97 c2.69,0,5.0,0.98,6.94,2.95 c1.94,1.97,2.9,4.3,2.9,6.98 c0,1.76,-0.45,3.38,-1.34,4.87 c-0.89,1.49,-2.09,2.69,-3.6,3.6 c-1.51,0.91,-3.14,1.37,-4.9,1.37 c-1.76,0,-3.4,-0.44,-4.92,-1.32 c-1.52,-0.88,-2.73,-2.08,-3.62,-3.6 c-0.89,-1.52,-1.34,-3.16,-1.34,-4.92 c0,-2.73,0.97,-5.06,2.92,-7.01 c1.95,-1.95,4.27,-2.92,6.95,-2.92 Z M27.65,39.97" fill="rgb(58,181,91)" transform="matrix(1,0,0,-1,103.25887718026023,744.98388671875)"/>
 <path d="M25.66,24.39 c-4.14,0.0,-7.96,1.01,-11.43,3.02 c-3.48,2.01,-6.22,4.73,-8.23,8.16 c-2.01,3.42,-3.02,7.13,-3.02,11.11 c0,4.2,1.01,8.04,3.02,11.53 c2.01,3.49,4.76,6.26,8.23,8.3 c3.48,2.05,7.3,3.07,11.47,3.07 l0.2,0 c4.21,0,8.08,-1.02,11.6,-3.07 c3.52,-2.05,6.31,-4.8,8.35,-8.27 c2.05,-3.47,3.07,-7.29,3.07,-11.46 c0.0,-3.92,-1.03,-7.6,-3.09,-11.04 c-2.06,-3.44,-4.85,-6.19,-8.37,-8.25 c-3.52,-2.06,-7.39,-3.09,-11.6,-3.09 Z M35.5,33.4 l8.41,7.0 l0,6.48 l5.0,-0.1 c0.0,-2.26,-0.33,-4.53,-0.98,-6.8 c-0.65,-2.27,-1.73,-4.71,-3.22,-7.3 l-19.42,-32.67 l-9.5,0 Z M25.89,37.5 c2.61,0,4.84,0.93,6.7,2.8 c1.85,1.87,2.78,4.1,2.78,6.71 c0,2.61,-0.93,4.86,-2.78,6.74 c-1.85,1.89,-4.09,2.83,-6.7,2.83 c-2.64,0,-4.87,-0.94,-6.71,-2.81 c-1.84,-1.87,-2.76,-4.13,-2.76,-6.76 c0,-2.64,0.92,-4.88,2.76,-6.73 c1.84,-1.85,4.08,-2.78,6.71,-2.78 Z M25.89,37.5" fill="rgb(58,181,91)" transform="matrix(1,0,0,-1,44.03125,530.98388671875)"/>
 <path d="M26.28,39.37 l-20.6,0 c-1.13,0,-2.08,0.38,-2.85,1.15 c-0.77,0.77,-1.15,1.7,-1.15,2.79 c-0.0,1.16,0.38,2.1,1.15,2.84 c0.77,0.74,1.72,1.1,2.85,1.1 l3.63,0 c3.09,0,5.93,0.75,8.51,2.26 c2.59,1.5,4.64,3.55,6.17,6.15 c1.53,2.59,2.29,5.44,2.29,8.53 l0,1.27 c0.0,1.2,0.39,2.18,1.18,2.96 c0.79,0.78,1.75,1.16,2.88,1.16 c1.2,0,2.18,-0.39,2.96,-1.16 c0.78,-0.78,1.16,-1.76,1.16,-2.96 l0,-65.46 l-8.19,0 Z M26.28,7.89 l0.98,0 l0,-7.89 l-0.98,0 Z M33.49,7.89 l0.98,0 l0,-7.89 l-0.98,0 Z M83.3,-0.98 c-6.53,0,-12.54,1.57,-18.03,4.7 c-5.49,3.14,-9.82,7.4,-12.99,12.79 c-3.17,5.39,-4.75,11.32,-4.75,17.79 c0,6.47,1.58,12.4,4.75,17.79 c3.17,5.39,7.5,9.65,12.99,12.79 c5.49,3.14,11.5,4.7,18.03,4.7 c6.6,0,12.64,-1.57,18.13,-4.7 c5.49,-3.14,9.82,-7.4,12.98,-12.79 c3.17,-5.39,4.75,-11.32,4.75,-17.79 c0,-6.47,-1.58,-12.4,-4.75,-17.79 c-3.17,-5.39,-7.5,-9.65,-12.98,-12.79 c-5.49,-3.14,-11.53,-4.7,-18.13,-4.7 Z M83.3,16.86 c3.07,0,5.91,0.78,8.53,2.35 c2.61,1.57,4.69,3.69,6.22,6.37 c1.54,2.68,2.3,5.59,2.3,8.72 c0,3.14,-0.77,6.06,-2.3,8.77 c-1.54,2.71,-3.61,4.85,-6.22,6.42 c-2.61,1.57,-5.46,2.35,-8.53,2.35 c-3.07,0,-5.9,-0.78,-8.48,-2.35 c-2.58,-1.57,-4.64,-3.71,-6.17,-6.42 c-1.54,-2.71,-2.3,-5.63,-2.3,-8.77 c0,-3.14,0.77,-6.04,2.3,-8.72 c1.54,-2.68,3.59,-4.8,6.17,-6.37 c2.58,-1.57,5.41,-2.35,8.48,-2.35 Z M83.3,16.86" fill="rgb(58,181,91)" transform="matrix(1,0,0,-1,65.59642564217435,316.98388671875)"/>
 <path d="M26.28,39.37 l-20.6,0 c-1.13,0,-2.08,0.38,-2.85,1.15 c-0.77,0.77,-1.15,1.7,-1.15,2.79 c-0.0,1.16,0.38,2.1,1.15,2.84 c0.77,0.74,1.72,1.1,2.85,1.1 l3.63,0 c3.09,0,5.93,0.75,8.51,2.26 c2.59,1.5,4.64,3.55,6.17,6.15 c1.53,2.59,2.29,5.44,2.29,8.53 l0,1.27 c0.0,1.2,0.39,2.18,1.18,2.96 c0.79,0.78,1.75,1.16,2.88,1.16 c1.2,0,2.18,-0.39,2.96,-1.16 c0.78,-0.78,1.16,-1.76,1.16,-2.96 l0,-65.46 l-8.19,0 Z M26.28,7.89 l0.98,0 l0,-7.89 l-0.98,0 Z M33.49,7.89 l0.98,0 l0,-7.89 l-0.98,0 Z M69.1,39.37 l-20.6,0 c-1.13,0,-2.08,0.38,-2.85,1.15 c-0.77,0.77,-1.15,1.7,-1.15,2.79 c0,1.16,0.38,2.1,1.15,2.84 c0.77,0.74,1.72,1.1,2.85,1.1 l3.63,0 c3.09,0,5.93,0.75,8.51,2.26 c2.59,1.5,4.64,3.55,6.17,6.15 c1.53,2.59,2.29,5.44,2.29,8.53 l0,1.27 c0,1.2,0.39,2.18,1.18,2.96 c0.79,0.78,1.75,1.16,2.88,1.16 c1.2,0,2.18,-0.39,2.96,-1.16 c0.78,-0.78,1.16,-1.76,1.16,-2.96 l0,-65.46 l-8.19,0 Z M69.1,7.89 l0.98,0 l0,-7.89 l-0.98,0 Z M76.31,7.89 l0.98,0 l0,-7.89 l-0.98,0 Z M76.31,7.89" fill="rgb(58,181,91)" transform="matrix(1,0,0,-1,243.19361096191383,160.3250138990104)"/>
 <path d="M26.28,39.37 l-20.6,0 c-1.13,0,-2.08,0.38,-2.85,1.15 c-0.77,0.77,-1.15,1.7,-1.15,2.79 c-0.0,1.16,0.38,2.1,1.15,2.84 c0.77,0.74,1.72,1.1,2.85,1.1 l3.63,0 c3.09,0,5.93,0.75,8.51,2.26 c2.59,1.5,4.64,3.55,6.17,6.15 c1.53,2.59,2.29,5.44,2.29,8.53 l0,1.27 c0.0,1.2,0.39,2.18,1.18,2.96 c0.79,0.78,1.75,1.16,2.88,1.16 c1.2,0,2.18,-0.39,2.96,-1.16 c0.78,-0.78,1.16,-1.76,1.16,-2.96 l0,-65.46 l-8.19,0 Z M26.28,7.89 l0.98,0 l0,-7.89 l-0.98,0 Z M33.49,7.89 l0.98,0 l0,-7.89 l-0.98,0 Z M48.51,19.39 c0,3.67,0.84,6.98,2.53,9.93 c1.69,2.95,4.03,5.25,7.02,6.9 c2.99,1.65,6.37,2.48,10.13,2.48 l0.75,0 c3.38,0,6.2,1.04,8.44,3.13 c2.25,2.09,3.37,4.72,3.37,7.9 c0,3.18,-1.16,5.81,-3.48,7.88 c-2.32,2.08,-5.32,3.12,-9.02,3.12 l-19.08,0 l0,7.87 l19.65,0 c3.97,0,7.52,-0.82,10.64,-2.45 c3.12,-1.63,5.56,-3.89,7.32,-6.78 c1.76,-2.88,2.64,-6.1,2.64,-9.64 c0,-3.54,-0.86,-6.75,-2.59,-9.61 c-1.73,-2.86,-4.12,-5.11,-7.17,-6.74 c-3.05,-1.63,-6.44,-2.44,-10.16,-2.44 l-0.87,0 c-3.42,0,-6.27,-1.09,-8.53,-3.26 c-2.27,-2.17,-3.4,-4.92,-3.4,-8.22 c0,-3.31,1.1,-6.06,3.31,-8.24 c2.21,-2.19,4.98,-3.28,8.31,-3.28 l20.43,0 l0,-7.93 l-40.25,0 Z M48.51,19.39" fill="rgb(58,181,91)" transform="matrix(1,0,0,-1,451.124501586914,102.98388671875)"/>
</svg>