<?xml version="1.0" encoding="UTF-8"?>
<!--Generator: Apple Native CoreSVG 326-->
<!DOCTYPE svg
PUBLIC "-//W3C//DTD SVG 1.1//EN"
       "http://www.w3.org/Graphics/SVG/1.1/DTD/svg11.dtd">
<svg version="1.1" xmlns="http://www.w3.org/2000/svg" xmlns:xlink="http://www.w3.org/1999/xlink" viewBox="0 0 40.7731 35.8928">
 <g>
  <rect height="35.8928" opacity="0" width="40.7731" x="0" y="0"/>
  <path d="M15.2642 34.3094L25.1574 34.3094L25.1574 23.1482C25.1574 22.395 24.6777 21.907 23.9161 21.907L16.5054 21.907C15.759 21.907 15.2642 22.395 15.2642 23.1482ZM1.31199 17.893C1.73189 17.893 2.07071 17.6671 2.37767 17.4125L19.5612 2.98389C19.7642 2.80284 19.9975 2.7233 20.2142 2.7233C20.424 2.7233 20.6422 2.80284 20.8452 2.98389L38.0439 17.4125C38.3509 17.6671 38.6897 17.893 39.1096 17.893C39.9342 17.893 40.4216 17.3079 40.4216 16.6856C40.4216 16.3279 40.2647 15.9671 39.9221 15.6768L22.1662 0.775196C21.538 0.258399 20.8727 0 20.2142 0C19.5489 0 18.8684 0.258399 18.2553 0.775196L0.499439 15.6768C0.156885 15.9671 0 16.3279 0 16.6856C0 17.3079 0.494166 17.893 1.31199 17.893ZM31.5494 9.39331L35.5531 12.7725L35.5531 5.13853C35.5531 4.45342 35.0991 4.01462 34.414 4.01462L32.6885 4.01462C32.0186 4.01462 31.5494 4.45342 31.5494 5.13853ZM8.58604 35.8708L31.8204 35.8708C34.2004 35.8708 35.5531 34.5349 35.5531 32.2139L35.5531 13.1658L33.1027 11.4924L33.1027 31.5984C33.1027 32.8083 32.4905 33.4288 31.3179 33.4288L9.10372 33.4288C7.93104 33.4288 7.31053 32.8083 7.31053 31.5984L7.31053 11.5128L4.86848 13.1658L4.86848 32.2139C4.86848 34.5417 6.22112 35.8708 8.58604 35.8708Z" fill="black" fill-opacity="0.85"/>
 </g>
</svg>
