<?xml version="1.0" encoding="utf-8"?>
<!-- Generator: Adobe Illustrator 21.0.2, SVG Export Plug-In . SVG Version: 6.00 Build 0)  -->
<svg version="1.1" id="Layer_1" xmlns="http://www.w3.org/2000/svg" xmlns:xlink="http://www.w3.org/1999/xlink" x="0px" y="0px"
	 viewBox="0 0 1228.4 683.3" style="enable-background:new 0 0 1228.4 683.3;" xml:space="preserve">
<style type="text/css">
	.st0{fill:none;stroke:#FFFFFF;stroke-miterlimit:10;}
</style>
<title>skeuo</title>
<path class="st0" d="M1077.8,158.5c-18,85.9-32.8,172.2-44.4,258.9c-4.9,36.9-8.7,76.6,12.7,108.9c11.2,17,28.5,30.3,46.5,42.1
	c41.9,27.4,89.2,48.1,136.3,68.5"/>
<path class="st0" d="M582.2,94.5c-43.6-4.3-87.7-8.7-131.3-4.4c-43.6,4.3-87.4,18-118.1,45.1c-26,22.9-40.7,53.5-52.2,83.9
	c-6.7,17.7-12.6,36.7-7.4,54.8c5.5,19.1,22.2,34,38.3,47.9c50.8,44,104,89.3,171.9,109.7"/>
<path class="st0" d="M510.3,275.6C392.5,424.9,176,498.8,56.8,647.3c4.6,0.3,9.2,0.7,13.8,1"/>
<path class="st0" d="M1133.4,227.8c-69.7,25.1-140.5,47.8-212.3,68.1c-59.6,16.9-120.2,32.2-176.4,56.2
	c-45.3,19.4-87.3,44.1-129,68.7c-82.9,48.9-167.5,99.2-227.3,168.8"/>
<path class="st0" d="M0,208.6C330.6,165.9,641.8,42.4,972.7,1.3c19.2-2.4,42.7-2.9,53.5,11c5.5,7.1,5.9,16.3,5.3,24.8
	c-2.5,32.1-17.1,62.5-32.7,91.8c-87.4,164.3-208.8,313.4-301.3,475.6c-14.2,25-28,51-29.9,78.8c90.1,0,180.3-3.1,270.1-9.3"/>
</svg>
