<?xml version="1.0" encoding="utf-8"?>
<!-- Generator: Adobe Illustrator 21.0.2, SVG Export Plug-In . SVG Version: 6.00 Build 0)  -->
<svg version="1.1" id="Layer_1" xmlns="http://www.w3.org/2000/svg" xmlns:xlink="http://www.w3.org/1999/xlink" x="0px" y="0px"
	 viewBox="0 0 1228.4 683.3" style="enable-background:new 0 0 1228.4 683.3;" xml:space="preserve">
<style type="text/css">
	.st0{fill:none;stroke:#FFFFFF;stroke-miterlimit:10;}
</style>
<title>skeuo</title>
<path class="st0" d="M866.3,205.6C821,152.3,760.2,112.8,693.4,96.9s-139.3-7.3-199.5,26.5c-48.2,27-87.1,68.6-123.5,111
	c-28.8,33.5-56.8,68.2-76.5,108.1c-19.7,39.9-30.6,85.7-23.3,129.9c8.8,53.3,42.8,98.2,78.5,137.5c19.9,21.9,41.5,43.4,68.2,55.2
	c20.4,9,42.8,11.9,64.9,14.2c54.8,5.7,111.7,7.8,163.2-12.4c40.9-16.1,75.7-45.4,106.2-77.8c20.2-21.5,39.1-45,51.6-72
	c23.2-50,23.2-107.7,22.8-163.1c-0.3-39.6-0.8-80.2-14.2-117.3c-10.7-29.7-29.2-55.7-48.1-80.7C717.8,95.3,666.4,36.9,601,0"/>
<path class="st0" d="M0.8,80.3C245.1,186,483.2,307.2,713.2,442.8"/>
<path class="st0" d="M238.9,670.8c11.9-25.8,32.8-45.8,53.9-64.1c56.6-49.2,118.8-91.6,184.9-126c107.3-55.8,223.8-90.2,333.6-140.4
	c148.9-68.1,283.9-164.7,417.1-261.6"/>
</svg>
