<?xml version="1.0" encoding="utf-8"?>
<!-- Generator: Adobe Illustrator 21.0.2, SVG Export Plug-In . SVG Version: 6.00 Build 0)  -->
<svg version="1.1" id="Layer_1" xmlns="http://www.w3.org/2000/svg" xmlns:xlink="http://www.w3.org/1999/xlink" x="0px" y="0px"
	 viewBox="0 0 1280 1024" style="enable-background:new 0 0 1280 1024;" xml:space="preserve">
<style type="text/css">
	.st0{fill:none;stroke:#FFFFFF;stroke-miterlimit:10;}
</style>
<path class="st0" d="M377.6,589.3c47.2,53.7,110.6,93.5,180.3,109.5c69.7,16,145.2,7.4,208.1-26.7c50.3-27.2,90.8-69.2,128.8-111.9
	c30-33.7,59.3-68.8,79.8-109s31.9-86.4,24.3-130.9c-9.2-53.7-44.6-99-81.9-138.7c-20.8-22.1-43.2-43.8-71.1-55.7
	c-21.3-9.1-44.7-12-67.7-14.3c-57.1-5.7-116.5-7.9-170.2,12.5c-42.6,16.2-78.9,45.8-110.7,78.5c-21.1,21.7-40.7,45.3-53.9,72.6
	c-24.2,50.4-24.2,108.6-23.7,164.5c0.3,39.9,0.9,80.8,14.8,118.3c11.2,30,30.4,56.2,50.1,81.4c47.9,61.2,101.5,120.1,169.7,157.2"/>
<path class="st0" d="M1280,715.6C1025.3,609,777.1,486.9,537.1,350.1"/>
<path class="st0" d="M1031.7,120.2c-12.4,26-34.2,46.1-56.2,64.7c-59,49.6-123.9,92.3-192.8,127c-111.9,56.3-233.3,90.9-347.8,141.6
	c-155.3,68.7-296,166-434.9,263.7"/>
</svg>
