<?xml version="1.0" encoding="utf-8"?>
<!-- Generator: Adobe Illustrator 21.0.2, SVG Export Plug-In . SVG Version: 6.00 Build 0)  -->
<svg version="1.1" id="Layer_1" xmlns="http://www.w3.org/2000/svg" xmlns:xlink="http://www.w3.org/1999/xlink" x="0px" y="0px"
	 viewBox="0 0 1228.4 683.3" style="enable-background:new 0 0 1228.4 683.3;" xml:space="preserve">
<style type="text/css">
	.st0{fill:none;stroke:#FFFFFF;stroke-miterlimit:10;}
</style>
<title>skeuo</title>
<path class="st0" d="M59.4,202.1c-19.8,160-39.6,320-59.4,480C64.9,554.4,131.1,425,218.7,328.3c32.4,111.3-14.4,249.2,26.1,355
	c62.1-106.2,127.3-208.7,195.3-307.1c-13.6,43.5,16.1,94.5,49.2,101.6c33.1,7.1,65.6-15.8,94.2-40.7
	c86.6-75.6,161.3-175.4,239.9-266.8c11.9-13.9,28-28.3,41.6-18c13.4,10.1,14.2,36,18.8,56.4c14.8,66.3,80.2,83,124.1,51.8
	s72-92.6,102.2-147.4S1179.4,4.4,1228.4,0"/>
</svg>
