<?xml version="1.0" encoding="utf-8"?>
<!-- Generator: Adobe Illustrator 21.0.2, SVG Export Plug-In . SVG Version: 6.00 Build 0)  -->
<svg version="1.1" id="Layer_1" xmlns="http://www.w3.org/2000/svg" xmlns:xlink="http://www.w3.org/1999/xlink" x="0px" y="0px"
	 viewBox="0 0 1228.4 683.3" style="enable-background:new 0 0 1228.4 683.3;" xml:space="preserve">
<style type="text/css">
	.st0{fill:none;stroke:#FFFFFF;stroke-miterlimit:10;}
</style>
<title>skeuo</title>
<path class="st0" d="M-5.9,0c83.6,8.6,161.3,50.2,234.7,95.5c61,37.6,120.4,78.4,178.1,122"/>
<path class="st0" d="M735.2,97.7c-78.5-10.1-157.9-20.1-236.4-10.1s-157.3,42-212.4,105.1c-35.9,41.1-60.3,93.8-72.1,149.6
	c-14.8,69.8-9.3,147.2,26,207.1c35.4,60.2,96.5,96.4,158.9,115.4c93.2,28.4,193.4,23,286.3-7.1c93.5-30.3,183.2-88.5,235.8-179.7
	s60.5-218.5,2.6-305.7C861.2,77.5,744.8,53.1,639.6,42.5"/>
<path class="st0" d="M53.9,456.8c391.9,30.1,781.9-98.6,1174.5-83"/>
</svg>
