<?xml version="1.0" encoding="utf-8"?>
<!-- Generator: Adobe Illustrator 21.0.2, SVG Export Plug-In . SVG Version: 6.00 Build 0)  -->
<svg version="1.1" id="Layer_1" xmlns="http://www.w3.org/2000/svg" xmlns:xlink="http://www.w3.org/1999/xlink" x="0px" y="0px"
	 viewBox="0 0 1228.4 683.3" style="enable-background:new 0 0 1228.4 683.3;" xml:space="preserve">
<style type="text/css">
	.st0{fill:none;stroke:#FFFFFF;stroke-miterlimit:10;}
</style>
<title>skeuo</title>
<path class="st0" d="M284.3,194c30.2,34.4,60.4,68.9,90.6,103.4"/>
<path class="st0" d="M362.4,194.7c37,29.7,67.6,66.6,89.2,107.7"/>
<path class="st0" d="M498.7,234.4c33.2,38.9,62.2,81,86.7,125.4"/>
<path class="st0" d="M658.1,360.3c14.6,29.6,31.9,57.9,51.8,84.5"/>
<path class="st0" d="M713.7,362.7c38.9,49,77.8,98,116.7,147"/>
<path class="st0" d="M763.4,206.1C782,255.5,809.8,301.7,845,342"/>
<path class="st0" d="M696.6,170.1c13.4,36.4,29.8,71.7,49,105.7"/>
<path class="st0" d="M596,154.2c8.7,31.6,18.6,62.9,29.9,93.8"/>
<path class="st0" d="M132.3,173.1c40.6,95.9,91,188.1,150.4,274.7"/>
<path class="st0" d="M2.6,318.5c36,40.4,72,80.8,108,121.2"/>
<path class="st0" d="M148.7,531.2c15.9,36.9,37.5,71.7,63.8,102.8"/>
<path class="st0" d="M159.4,421.9c37.9,42.8,75.7,61.5,100.4,112.3c-18.2-37.2-40.5-72.6-66.3-105.4"/>
<path class="st0" d="M392.1,562.2c28.6,28.4,56.1,57.9,82.4,88.3"/>
<path class="st0" d="M447,431.3c43.2,19.7,80.6,50.9,106.8,89.2"/>
<path class="st0" d="M578.6,391.8c59.7,95.5,119.4,191,179.2,286.5"/>
<path class="st0" d="M862.4,453c21.7,20.1,38.1,45.3,47.3,72.8"/>
<path class="st0" d="M913,459c18.9,12.6,33.3,31.2,40.6,52"/>
<path class="st0" d="M946.8,351.8c29.5,68.4,65.8,134.1,108.2,196"/>
<path class="st0" d="M931.2,183.4c36.4,24.7,48.3,70.4,74.7,104.7"/>
<path class="st0" d="M1008.3,74.9c13.2,13.5,25.2,28.1,35.9,43.4"/>
<path class="st0" d="M1085.6,78.8c12,28.2,19.8,57.9,23.1,88.1"/>
<path class="st0" d="M1109.8,243c17.6,39.3,38.6,77.2,62.6,113.3"/>
<path class="st0" d="M1089.6,344.6c15.5,53.1,49.3,101.3,94.9,135.3"/>
<path class="st0" d="M1210.9,634.7c-61.3-41.5-116.3-91.3-162.8-147.6"/>
<path class="st0" d="M687.3,260.7c-0.1-52.1-0.3-104.2-0.4-156.4c-0.1-19.2,0.6-40.2,13.8-54.7"/>
<path class="st0" d="M538.7,238c-38.1-37.8-79-73-122.5-105.1c-42.8-31.6-90.8-61.3-144.9-64.9"/>
<path class="st0" d="M418.6,503.9c-23.7-9.6-44.5-25.6-59.4-45.6"/>
<path class="st0" d="M207.2,681.4c-11-17.6-22.1-35.3-33.1-52.9"/>
<path class="st0" d="M953.3,0.3C681.2,8.5,409.1,16.8,137,25.1c-36.3,217.6-55.4,437.8-56.9,658.1c201.1,2.8,400-34.8,599.6-58.5
	c181.9-21.7,365.3-31.9,548.7-30.7c-86.8-125.9-206.4-231.1-345-303.7C833.9,264.3,781,241.8,741,203.8
	c-48.5-46.2-72.8-110.8-85.5-175"/>
</svg>
