<?xml version="1.0" encoding="utf-8"?>
<!-- Generator: Adobe Illustrator 21.0.2, SVG Export Plug-In . SVG Version: 6.00 Build 0)  -->
<svg version="1.1" id="Layer_1" xmlns="http://www.w3.org/2000/svg" xmlns:xlink="http://www.w3.org/1999/xlink" x="0px" y="0px"
	 viewBox="0 0 1228.4 683.3" style="enable-background:new 0 0 1228.4 683.3;" xml:space="preserve">
<style type="text/css">
	.st0{fill:none;stroke:#FFFFFF;stroke-miterlimit:10;}
</style>
<title>skeuo</title>
<path class="st0" d="M873.6,194.8c-0.9-34.9-31.9-67.5-74.1-88.6S705,74,652.5,68.5c-41.2-4.3-84.8-5.4-123.1,5.5
	c-39.8,11.4-68.7,34.1-101.3,52.9C313.4,193,137.5,208.7,0,165.4"/>
<path class="st0" d="M254.8,84.3c29,2.5,41.4,25.4,45.3,44.5c13.4,67.3-3.4,135.9,9.2,203.3c5.2,28,17.1,57.5,49.3,76.3
	c30.5,17.9,73.4,22.7,113.9,26.4c139,12.7,279,20.1,419.3,22.2c40.5,0.6,81.5,0.8,120.9-5.6c65.5-10.5,121.7-38.1,170.9-68.4
	c21.2-13,42.7-28.4,44.8-47.3c2.2-19.3-16.3-36.8-35.5-51.5c-55.8-42.7-125.3-77.7-202.6-102.1"/>
<path class="st0" d="M599.7,0c-14.2,44.7-14.2,90.6-14.1,136.3c0.2,128.8,0.3,257.6,0.5,386.4c0,37.4,0.1,75,9.9,111.8
	c4.4,16.6,10.7,32.9,18.9,48.8"/>
</svg>
