<?xml version="1.0" encoding="utf-8"?>
<!-- Generator: Adobe Illustrator 21.0.2, SVG Export Plug-In . SVG Version: 6.00 Build 0)  -->
<svg version="1.1" id="Layer_1" xmlns="http://www.w3.org/2000/svg" xmlns:xlink="http://www.w3.org/1999/xlink" x="0px" y="0px"
	 viewBox="0 0 869 258" style="enable-background:new 0 0 869 258;" xml:space="preserve">
<style type="text/css">
	.st0{fill:none;stroke:#000000;stroke-miterlimit:10;}
	.st1{fill:none;stroke:#000000;stroke-miterlimit:1;}
	.st2{fill:none;stroke:#000000;stroke-miterlimit:3;}
</style>
<g>
	<path class="st0" d="M62.1,94.3c40.1,0,62.6,24.8,62.6,68.6v1.4c0,42.9-22.7,67.2-62.6,67.2H25.9V94.3H62.1z"/>
	<path class="st0" d="M0,252.6h63c53.5,0,88.8-35,88.8-88.1v-1.4c0-56.1-33.4-89.9-88.8-89.9H0V252.6z"/>
	<path class="st1" d="M0,73.2"/>
	<polyline class="st1" points="0,73.2 12.8,84.3 12.8,242.6 0,252.6 	"/>
	<path class="st1" d="M12.8,113.1"/>
	<line class="st1" x1="12.8" y1="242.6" x2="25.9" y2="231.5"/>
	<path class="st1" d="M12.8,84.3c0,0,4.6,0,13.1,0s7.4,0,39.5,0c43.3,0,72.7,26.6,72.7,82h0c0,55.3-40.6,76.3-72.7,76.3
		s-30.9,0-39.5,0s-13.1,0-13.1,0"/>
	<line class="st1" x1="25.9" y1="94.3" x2="12.8" y2="84.3"/>
</g>
<g>
	<rect x="165.6" y="73.2" class="st0" width="26.4" height="179.4"/>
	<polyline class="st1" points="165.6,252.6 178.6,239.7 192,252.6 	"/>
	<polyline class="st1" points="165.6,73.2 178.6,86 192,73.2 	"/>
	<line class="st1" x1="178.6" y1="239.7" x2="178.6" y2="86"/>
</g>
<g>
	<path class="st0" d="M287.7,69.7c-49.4,0-82,37.3-82,93.4v1.4c0,54.9,32.9,91.5,82.3,91.5c40.8,0,69.5-22.5,79.3-62.1l-25.3-6.7
		c-10.9,33.8-25,46.1-53.3,46.1c-33.1,0-55.9-28-55.9-68.8v-1.4c0-44.5,20.4-70.7,55.2-70.7c27.1,0,45.2,17.6,51.9,50.8l25.5-7
		C358.6,95.4,328.7,69.7,287.7,69.7"/>
	<polyline class="st1" points="341.9,187.2 350.3,203.4 367.2,193.9 	"/>
	<polyline class="st1" points="339.8,143.2 349,127.1 365.3,136.2 	"/>
	<path class="st1" d="M349,127.1c-7.2-23.2-25.7-45.6-61.3-45.6c-36.8,0-68.3,26.9-68.3,81.9"/>
	<path class="st1" d="M350.3,203.4c-7.2,23.2-27,41.9-62.6,41.9c-36.8,0-68.3-26.9-68.3-81.9"/>
</g>
<g>
	<polygon class="st0" points="359.5,93.1 421.1,93.1 421.1,252.6 446.9,252.6 446.9,93.1 508.3,93.1 508.3,73.2 359.5,73.2 	"/>
	<polyline class="st1" points="421.4,252.6 434.2,239.7 446.9,252.6 	"/>
	<line class="st1" x1="434.2" y1="239.7" x2="434.2" y2="83.1"/>
	<polyline class="st1" points="359.5,93.1 369.4,83.1 359.5,73.2 	"/>
	<polyline class="st1" points="508.4,93.1 498.4,83.1 508.4,73.2 	"/>
	<line class="st1" x1="498.4" y1="83.1" x2="369.4" y2="83.1"/>
	<line class="st1" x1="421.1" y1="93.1" x2="434.2" y2="83.1"/>
	<line class="st1" x1="447.3" y1="93.1" x2="434.2" y2="83.1"/>
</g>
<g>
	<polyline class="st1" points="513.5,113.9 516.4,112.8 515.5,116.2 	"/>
	<g>
		<path class="st0" d="M666.3,200.2h-6l-4,7.9c-8.3,16.9-16.9,19.2-32.1,19.2h-88l21.2-19.5c57.2-52.6,66.5-74.1,66.5-92.3
			c0-25.5-17.5-45-46-45c-28.4,0-48.3,17.5-64.5,43.3l2,2.3c17.5-15.5,32.1-22.8,48.3-22.8c21.8,0,32.4,16.2,32.4,33.1
			c0,14.2-5.3,30.1-47.3,76.7l-43,49.3l0,0h143.9L666.3,200.2z"/>
		<polyline class="st1" points="660.4,200.2 662.2,203.7 666.3,200.2 		"/>
		<path class="st1" d="M662.2,203.7c0,0-7,23.3-22.7,36.1c-14.6,0-105.7,0-105.7,0l-27.8,12.7"/>
		<line class="st1" x1="639.4" y1="239.8" x2="649.8" y2="252.5"/>
		<line class="st1" x1="537.4" y1="227.3" x2="532.5" y2="227.3"/>
		<path class="st2" d="M533.8,239.8l-1.3-12.5c52.3-50,77-81.2,77-106.9c0-21.9-13-38-40.3-38s-52.8,30.5-52.8,30.5"/>
	</g>
</g>
<g>
	<path class="st0" d="M692.9,253.9c12,0,18.2-7.8,18.2-17.2c0-9.4-6.2-17.2-18.2-17.2c-11.7,0-18.2,7.8-18.2,17.2
		C674.7,246.1,681.2,253.9,692.9,253.9"/>
	<line class="st2" x1="674.7" y1="236.7" x2="711.1" y2="236.7"/>
</g>
<g>
	<path class="st0" d="M867.1,0.4c-67.1,9.9-156.8,71.8-156.8,168c0,53.6,32.4,89.3,83.3,89.3c43,0,75.7-28.1,75.7-73.1
		c0-27.8-21.2-62.8-65.2-62.8c-18.9,0-35.4,9.6-43,16.2l1,2.6c8.3-4.6,18.2-9.3,33.1-9.3c29.8,0,44,31.1,44,57.9
		c0,40-18.2,62.8-45.3,62.8c-36.1,0-52.6-28.4-52.6-85c0-92.3,77.1-154.1,125.7-164V0.4z"/>
	<polyline class="st2" points="761.3,138 763.6,138.4 762.3,140.7 	"/>
	<path class="st0" d="M763.6,138.4c0,0,16.7-11.3,35.3-11.3c25.5,0,55.1,20.8,55.1,59.9c0,42.4-26.7,68.5-60.4,68.5
		c-41.5,0-68.4-34.5-68.4-87.2c0-60,45.2-142.3,140.3-166.2"/>
	<polyline class="st0" points="867.1,0.4 865.6,2.1 867.1,3.1 	"/>
</g>
</svg>
