<?xml version="1.0" encoding="utf-8"?>
<!-- Generator: Adobe Illustrator 21.0.2, SVG Export Plug-In . SVG Version: 6.00 Build 0)  -->
<svg version="1.1" id="Layer_1" xmlns="http://www.w3.org/2000/svg" xmlns:xlink="http://www.w3.org/1999/xlink" x="0px" y="0px"
	 viewBox="0 0 1280 1024" style="enable-background:new 0 0 1280 1024;" xml:space="preserve">
<style type="text/css">
	.st0{fill:none;stroke:#FFFFFF;stroke-miterlimit:10;}
</style>
<path class="st0" d="M-0.2,410.6c36.4-63.8,82.9-121.8,137.1-171.3C106.3,352.1,75.7,465,45.1,577.9c-3.8,14.2-7,31.3,3.1,41.9
	c9.2,9.7,24.8,8.9,37.6,5.4c30.5-8.3,57-27.1,82.4-45.9C247,521,323.2,459.2,399.4,397.4c-6.1,11.9,1.5,27.1,13,34
	c11.5,6.9,25.5,7.5,38.9,7.6c81.4,1.1,163.2-6.2,244.2,2.7c53.1,5.8,105.4,18.6,158.7,22.7c114.8,8.9,235.6-21.4,342.5,21.5"/>
<path class="st0" d="M783,302.7c59.1-40.1,118.3-80.2,180.5-115.3c58.2-32.9,120.7-61.8,187.4-67.2c18.5-1.5,38.3-0.9,54,9.1
	c20,12.7,28.6,37.1,34.6,60c61.1,234.9-14.8,488.2,40.6,724.5"/>
</svg>
