<?xml version="1.0" encoding="utf-8"?>
<!-- Generator: Adobe Illustrator 21.0.2, SVG Export Plug-In . SVG Version: 6.00 Build 0)  -->
<svg version="1.1" id="Layer_1" xmlns="http://www.w3.org/2000/svg" xmlns:xlink="http://www.w3.org/1999/xlink" x="0px" y="0px"
	 viewBox="0 0 1228.4 683.3" style="enable-background:new 0 0 1228.4 683.3;" xml:space="preserve">
<style type="text/css">
	.st0{fill:none;stroke:#FFFFFF;stroke-miterlimit:10;}
</style>
<title>skeuo</title>
<path class="st0" d="M0,250.5c34.9-54.9,79.5-104.8,131.6-147.4c-29.4,97.1-58.8,194.2-88.2,291.3c-3.7,12.2-6.7,26.9,2.9,36.1
	c8.8,8.3,23.8,7.6,36.1,4.6c29.3-7.1,54.7-23.3,79.1-39.5c75.7-50.2,148.8-103.4,221.9-156.5c-5.8,10.2,1.5,23.4,12.5,29.3
	c11,5.9,24.5,6.4,37.3,6.6c78.1,1,156.6-5.3,234.3,2.3c51,5,101.1,16,152.3,19.5c110.2,7.7,226.1-18.4,328.6,18.5"/>
<path class="st0" d="M751.5,157.6c56.7-34.5,113.5-69,173.2-99.2c55.9-28.3,115.8-53.2,179.8-57.8c17.8-1.3,36.7-0.7,51.8,7.8
	c19.2,10.9,27.4,31.9,33.2,51.6c58.6,202.1-14.2,420,39,623.3"/>
</svg>
