<?xml version="1.0" encoding="utf-8"?>
<!-- Generator: Adobe Illustrator 21.0.2, SVG Export Plug-In . SVG Version: 6.00 Build 0)  -->
<svg version="1.1" id="Layer_1" xmlns="http://www.w3.org/2000/svg" xmlns:xlink="http://www.w3.org/1999/xlink" x="0px" y="0px"
	 viewBox="0 0 1228.4 683.3" style="enable-background:new 0 0 1228.4 683.3;" xml:space="preserve">
<style type="text/css">
	.st0{fill:none;stroke:#FFFFFF;stroke-miterlimit:10;}
</style>
<title>skeuo</title>
<path class="st0" d="M203,325.2c98.3-14.8,195.5,26.8,291.5,55.9C619.9,418.9,749,435.9,875,470.7
	c100.6,27.8,198.8,66.8,296.8,105.8"/>
<path class="st0" d="M939.8,86.9c8.6,77.1-10.9,154.5-57.9,229.8c-18,28.8-40,57.4-48.1,86.7c-25.9,93.3,89.9,187.3,46.2,279.9"/>
<path class="st0" d="M805.8,80.9c-58.4,20.9-62.9,53.5-104,78.9c-21.1,13.1-51.6,24-75.4,36.5c-35.6,18.7-55.4,40.5-72,62.2
	c-49,63.9-112.6,148.9-58.5,214c55,66.1,101.2,127.2,118.7,196.5"/>
<path class="st0" d="M834.9,198.5c-102.1-27-187.6-109.1-285.7-152.4C500.4,24.5,448.9,12.8,397.1,6.2
	C291.3-7.3,183.3,0.9,80.6,33.9c-9.2,3-18.6,6.3-26,13.5c-10.3,10-15,25.8-19.3,40.7C18.8,145.7,2.1,204.4,0.2,265.2
	S13,390.5,50.8,431.5c32,34.7,75.7,48.3,117.6,60.6c70.8,20.7,141.7,40.8,212.7,60.1c111.9,30.5,225,59.3,339.8,62.6
	c75.4,2.2,153-7.4,220.1-48.4c40.9-25,76.4-60.7,110.9-96.9c60.7-63.6,119.6-129.7,176.5-198.1"/>
</svg>
