<svg id="Layer_1" data-name="Layer 1" xmlns="http://www.w3.org/2000/svg" viewBox="0 0 1228.4 683.31"><defs><style>.cls-1{fill:none;stroke:#fff;stroke-miterlimit:10;}</style></defs><title>skeuo</title><path class="cls-1" d="M25.88,282.87A2130.06,2130.06,0,0,1,276.35,204c57-14.13,114.74-25.94,173.3-29.86,110.76-7.41,221.24,13.5,330.28,34.32,38.74,7.4,77.73,14.86,114.44,29.28,93.36,36.65,165.24,116.55,208.63,207A1066.69,1066.69,0,0,0,708.34,289.62c-71.3-12.52-144.74-17.68-216-4.93A549.44,549.44,0,0,1,663.89,299c-38.69,32-87,49.34-131.82,71.95s-89.15,53.77-107.57,100.47c107.28-12.81,219.48-20.11,320.19,19C809.75,515.73,866,558.93,921.26,601.56c76.74,59.2,155.6,120.82,202.55,205.62,11.41,20.6,24.7,45.23,48.12,47.62,22.31,2.27,40.62-17.89,49.89-38.3s14.12-43.57,29.17-60.19l-22.54,15.08" transform="translate(-25.7 -172.16)"/></svg>