<?xml version="1.0" encoding="utf-8"?>
<!-- Generator: Adobe Illustrator 21.0.2, SVG Export Plug-In . SVG Version: 6.00 Build 0)  -->
<svg version="1.1" id="Layer_1" xmlns="http://www.w3.org/2000/svg" xmlns:xlink="http://www.w3.org/1999/xlink" x="0px" y="0px"
	 viewBox="0 0 1228.4 683.3" style="enable-background:new 0 0 1228.4 683.3;" xml:space="preserve">
<style type="text/css">
	.st0{fill:none;stroke:#FFFFFF;stroke-miterlimit:10;}
	.st1{fill:#FFFFFF;}
</style>
<title>skeuo</title>
<g>
	<rect x="120.8" y="151.8" class="st0" width="937.4" height="323.1"/>
	<line class="st0" x1="183.3" y1="151.8" x2="183.3" y2="474.9"/>
	<line class="st0" x1="995.7" y1="151.8" x2="995.7" y2="474.9"/>
	<line class="st0" x1="933.2" y1="151.8" x2="933.2" y2="474.9"/>
	<line class="st0" x1="870.7" y1="151.8" x2="870.7" y2="474.9"/>
	<line class="st0" x1="808.2" y1="151.8" x2="808.2" y2="474.9"/>
	<line class="st0" x1="745.7" y1="151.8" x2="745.7" y2="474.9"/>
	<line class="st0" x1="683.2" y1="151.8" x2="683.2" y2="474.9"/>
	<line class="st0" x1="620.7" y1="151.8" x2="620.7" y2="474.9"/>
	<line class="st0" x1="558.2" y1="151.8" x2="558.2" y2="474.9"/>
	<line class="st0" x1="495.7" y1="151.8" x2="495.7" y2="474.9"/>
	<line class="st0" x1="433.2" y1="151.8" x2="433.2" y2="474.9"/>
	<line class="st0" x1="370.7" y1="151.8" x2="370.7" y2="474.9"/>
	<line class="st0" x1="308.2" y1="151.8" x2="308.2" y2="474.9"/>
	<line class="st0" x1="245.8" y1="151.8" x2="245.8" y2="474.9"/>
</g>
<g>
	<path class="st0" d="M0,236.8c122.9,0,397,0,519.9,0h708.5"/>
	<line class="st0" x1="433.2" y1="313.4" x2="995.4" y2="313.4"/>
	<line class="st0" x1="620.7" y1="389.9" x2="995.7" y2="389.9"/>
</g>
<g>
	<path class="st1" d="M133.9,196.1h19.4c0.9,0,1.4-0.2,2-0.7h0.1l0.6,6.1l-0.4,0.1c-0.6-2.4-1.3-4.7-4.8-4.7h-2
		c-2.9,0-3.2,0.4-3.2,2.8v22.3c0,3,0.3,3.1,3.2,3.7l1,0.2v0.3c-6.1-0.2-6.1-0.2-12,0v-0.3l1-0.2c2.8-0.4,3.2-0.7,3.2-3.7v-22.3
		c0-2.4-0.3-2.8-3.2-2.8h-2c-3.6,0-4.2,2.2-4.8,4.7l-0.4-0.1l0.6-6.1h0.1C132.5,196,132.9,196.1,133.9,196.1z"/>
	<path class="st1" d="M177.6,226.3c-6-0.2-6-0.2-12,0v-0.3l1-0.2c2.8-0.6,3.2-0.7,3.2-3.7v-11.2l-7.3-10.7c-1.8-2.6-2.8-3.3-4.6-3.7
		l-1-0.2V196c5.9,0.2,5.9,0.2,11.6,0v0.3l-1,0.2c-2.5,0.5-2.8,1.2-1,3.7l6.6,9.4l5.4-9.4c1.5-2.6,1.4-3.2-1.1-3.7l-1-0.2V196
		c4.7,0.2,4.7,0.2,9.6,0v0.3l-1,0.2c-1.8,0.4-3,1-4.6,3.7l-6.6,10.7v11.1c0,3,0.3,3.1,3.2,3.7l1,0.2V226.3z"/>
	<path class="st1" d="M187.3,196.1h8.6c8.5,0,12.8,3.6,12.8,9c0,3.8-2.3,7.8-8.6,7.8c-2.4,0-4.4-0.6-6.2-1.8v11
		c0,2.8,0.5,3.3,2.4,3.6l1.2,0.2v0.3c-5.6-0.2-5.6-0.2-10.2,0v-0.3l1-0.2c1.7-0.4,1.8-0.7,1.8-3.7v-21.7c0-3-0.2-3.3-1.8-3.7l-1-0.2
		V196.1z M193.9,197.2v12.9c1.4,0.9,3,1.8,5.4,1.8c3.9,0,5.2-3.6,5.2-6.2c0-4.5-2.6-8.4-9.5-8.4H193.9z"/>
	<path class="st1" d="M230.7,226.5c-1.4-0.3-2.4-0.4-5.7-0.4h-13.5v-0.3l1-0.2c2.1-0.4,2.2-0.7,2.2-3.7v-21.6c0-3-0.1-3.2-2.2-3.7
		l-1-0.2v-0.3h16l2.8-0.1l0.1,0l-0.6,7.1h-0.4c-0.2-4.6-1.1-6-6.1-6.1l-2.7,0c-1.7,0-2.2,0.4-2.2,2.3v11l7.4-0.1c3,0,3.5,0,4.1-2.5
		l0.2-0.8h0.5c-0.2,3.9-0.2,3.9,0,7.9h-0.5l-0.2-1c-0.5-2.5-1.1-2.4-4.1-2.5l-7.4-0.1v10.8c0,3,0.1,3.5,3.4,3.4l3-0.1
		c3.2-0.1,5.8-2,7.2-6l0.4,0.2L230.7,226.5z"/>
	<path class="st1" d="M245.5,226.1h-10v-0.3l1-0.2c1.7-0.4,1.8-0.7,1.8-3.7v-21.6c0-3-0.1-3.2-2.2-3.7l-1-0.2v-0.3h16l2.8-0.1l0.1,0
		l-0.6,7.1h-0.4c-0.2-4.6-1.1-6-6.1-6.1l-2.7,0c-1.7,0-2.2,0.4-2.2,3.3v10l7.4-0.1c3,0,3.5,0,4.1-2.5l0.2-0.8h0.5
		c-0.2,3.9-0.2,3.9,0,7.9h-0.5l-0.2-1c-0.5-2.5-1.1-2.4-4.1-2.5l-7.4-0.1v10.8c0,3,0.5,3.3,2.2,3.6l1.2,0.2V226.1z"/>
	<path class="st1" d="M269.7,195.9h0.8l10,26.1c1,2.8,1.6,3.3,3.4,3.7l1,0.2v0.3c-5.4-0.2-5.4-0.2-12,0v-0.3l1-0.2
		c2.5-0.5,3.3-0.8,2.2-3.7l-3.3-8.9h-7.8l-2.8,8.9c-0.9,2.9-0.2,3.2,2.2,3.7l1,0.2v0.3c-5.4-0.2-5.4-0.2-9.6,0v-0.3l1-0.2
		c1.8-0.4,2.4-0.9,3.4-3.7L269.7,195.9z M272.6,212l-3.8-10.2l-3.2,10.2H272.6z"/>
	<path class="st1" d="M291.2,211.4c0,8.4,4.8,14.4,11.5,14.4c5.3,0,8.6-2.6,9.4-7.2h0.7l-0.5,5.3c-1.8,1.6-6.2,2.9-9.8,2.9
		c-8.8,0-15.7-6.7-15.7-15.2c0-9.1,6.5-15.9,15.2-15.9c6.4,0,9.7,3,9.7,3l0.4,4.9h-0.7c0,0-1-7-9.2-7
		C295.6,196.6,291.2,202.5,291.2,211.4z"/>
	<path class="st1" d="M334.6,226.5c-1.4-0.3-2.4-0.4-5.7-0.4h-13.5v-0.3l1-0.2c2.1-0.4,2.2-0.7,2.2-3.7v-21.6c0-3-0.1-3.2-2.2-3.7
		l-1-0.2v-0.3h16l2.8-0.1l0.1,0l-0.6,7.1h-0.4c-0.2-4.6-1.1-6-6.1-6.1l-2.7,0c-1.7,0-2.2,0.4-2.2,2.3v11l7.4-0.1c3,0,3.5,0,4.1-2.5
		l0.2-0.8h0.5c-0.2,3.9-0.2,3.9,0,7.9h-0.5l-0.2-1c-0.5-2.5-1.1-2.4-4.1-2.5l-7.4-0.1v10.8c0,3,0.1,3.5,3.4,3.4l3-0.1
		c3.2-0.1,5.8-2,7.2-6l0.4,0.2L334.6,226.5z"/>
</g>
<g>
	<path class="st1" d="M444.5,273.9h8.1c7.8,0,11.7,2.8,11.7,7.1c0,3.2-2.4,5.9-6.5,6.9c1.8,0.3,8.6,1.7,8.6,7.7
		c0,4.8-4.1,8.3-11.5,8.3h-10.4v-0.3l1-0.2c1.7-0.4,1.8-0.7,1.8-3.7v-21.6c0-3-0.2-3.3-1.8-3.7l-1-0.2V273.9z M451,275v12.7l3.3-0.1
		c3-0.3,5.7-2.3,5.7-6.1c0-3.4-2.6-6.5-7.9-6.5H451z M454.4,303h0.5c4,0,7.1-1.7,7.1-7c0-6.5-5.8-7.2-7-7.3l-4-0.2v11.3
		C451,302.3,451.7,303,454.4,303z"/>
	<path class="st1" d="M484.5,273.4c8.8,0,15.7,6.7,15.7,15.2c0,9.1-6.5,15.9-15.2,15.9c-8.8,0-15.7-6.7-15.7-15.2
		C469.3,280.3,475.8,273.4,484.5,273.4z M484.5,274.5c-6.4,0-10.8,5.8-10.8,14.7c0,8.4,4.8,14.3,11.3,14.3c6.4,0,10.8-5.8,10.8-14.7
		C495.8,280.3,491,274.5,484.5,274.5z"/>
	<path class="st1" d="M518.2,273.4c8.8,0,15.7,6.7,15.7,15.2c0,9.1-6.5,15.9-15.2,15.9c-8.8,0-15.7-6.7-15.7-15.2
		C503,280.3,509.6,273.4,518.2,273.4z M518.2,274.5c-6.4,0-10.8,5.8-10.8,14.7c0,8.4,4.8,14.3,11.3,14.3c6.4,0,10.8-5.8,10.8-14.7
		C529.6,280.3,524.8,274.5,518.2,274.5z"/>
	<path class="st1" d="M564.1,304c-5.3-0.2-5.3-0.2-10.8,0v-0.3l1.2-0.2c1.8-0.3,0.8-1.5-1.2-3.6l-10-10.2v10.2c0,3,0.4,3.3,2.1,3.6
		l1.2,0.2v0.3c-5.2-0.2-5.2-0.2-10,0v-0.3l1-0.2c1.7-0.4,2-0.7,2-3.7V278c0-3-0.2-3.3-2-3.7l-1-0.2v-0.3c4.9,0.2,4.9,0.2,10,0v0.3
		l-1.2,0.2c-1.8,0.3-2.1,0.7-2.1,3.6v10.3l10.4-10.3c2.1-2.1,3-3.3,1.2-3.6l-1.2-0.2v-0.3c4.1,0.2,4.1,0.2,7.6,0v0.3l-1,0.2
		c-1.7,0.4-3.2,1.6-5.3,3.7l-9.5,9.4l12.3,12.4c2.1,2.1,3.6,3.3,5.3,3.7l1,0.2V304z"/>
</g>
<g>
	<path class="st1" d="M651.2,382c-1.4-0.3-2.4-0.4-5.7-0.4H632v-0.3l1-0.2c2.1-0.4,2.2-0.7,2.2-3.7v-21.6c0-3-0.1-3.2-2.2-3.7
		l-1-0.2v-0.3h16l2.8-0.1l0.1,0l-0.6,7.1h-0.4c-0.2-4.6-1.1-6-6.1-6.1l-2.7,0c-1.7,0-2.2,0.4-2.2,2.3v11l7.4-0.1c3,0,3.5,0,4.1-2.5
		l0.2-0.8h0.5c-0.2,3.9-0.2,3.9,0,7.9h-0.5l-0.2-1c-0.5-2.5-1.1-2.4-4.1-2.5l-7.4-0.1v10.8c0,3,0.1,3.5,3.4,3.4l3-0.1
		c3.2-0.1,5.8-2,7.2-6l0.4,0.2L651.2,382z"/>
	<path class="st1" d="M685.4,381.8c-5.8-0.2-5.8-0.2-12,0v-0.3l1-0.2c2.5-0.5,2.4-1.2,0.8-3.7L669,368l-6.4,9.6
		c-1.6,2.4-1.7,3.2,0.8,3.7l1,0.2v0.3c-4.2-0.2-4.6-0.2-9.6,0v-0.3l1-0.2c1.8-0.4,3.1-1.3,4.9-3.7l7.7-10.4l-7.5-11.5
		c-1.7-2.6-2.7-3.3-4.5-3.7l-1-0.2v-0.3c5.8,0.2,5.8,0.2,12,0v0.3l-1,0.2c-2.5,0.5-2.8,1.2-1.2,3.7l5.6,8.6l5.2-8.6
		c1.5-2.5,1.3-3.2-1.2-3.7l-1-0.2v-0.3c5.1,0.2,5.1,0.2,9.6,0v0.3l-1,0.2c-1.8,0.4-2.8,1.2-4.5,3.7l-6.5,9.4l8.1,12.4
		c1.7,2.6,3.1,3.4,4.9,3.7l1,0.2V381.8z"/>
	<path class="st1" d="M715.8,381.8c-4.8-0.2-4.8-0.2-10,0v-0.3l1.2-0.2c1.8-0.3,2.1-0.7,2.1-3.6v-11h-15.4v11c0,3,0.4,3.3,2.1,3.6
		l1.2,0.2v0.3c-5.2-0.2-5.2-0.2-10,0v-0.3l1-0.2c1.7-0.4,2-0.7,2-3.7v-21.8c0-3-0.2-3.3-2-3.7l-1-0.2v-0.3c4.9,0.2,4.9,0.2,10,0v0.3
		l-1.2,0.2c-1.8,0.3-2.1,0.7-2.1,3.6v9.7h15.4v-9.7c0-3-0.4-3.3-2.1-3.6l-1.2-0.2v-0.3c5.2,0.2,5.2,0.2,10,0v0.3l-1,0.2
		c-1.7,0.4-2,0.7-2,3.7v21.8c0,3,0.2,3.3,2,3.7l1,0.2V381.8z"/>
	<path class="st1" d="M728.8,381.8c-5.1-0.2-5.1-0.2-10.4,0v-0.3l1-0.2c2-0.4,2.4-0.7,2.4-3.7v-21.8c0-3-0.3-3.3-2.4-3.7l-1-0.2
		v-0.3c5.2,0.2,5.2,0.2,10.4,0v0.3l-1,0.2c-2,0.4-2.4,0.7-2.4,3.7v21.8c0,3,0.3,3.3,2.4,3.7l1,0.2V381.8z"/>
	<path class="st1" d="M731.2,351.7h8.1c7.8,0,11.7,2.8,11.7,7.1c0,3.2-2.4,5.9-6.5,6.9c1.8,0.3,8.6,1.7,8.6,7.7
		c0,4.8-4.1,8.3-11.5,8.3h-10.4v-0.3l1-0.2c1.7-0.4,1.8-0.7,1.8-3.7v-21.6c0-3-0.2-3.3-1.8-3.7l-1-0.2V351.7z M737.8,352.7v12.7
		l3.3-0.1c3-0.3,5.7-2.3,5.7-6.1c0-3.4-2.6-6.5-7.9-6.5H737.8z M741.2,380.7h0.5c4,0,7.1-1.7,7.1-7c0-6.5-5.8-7.2-7-7.3l-4-0.2v11.3
		C737.8,380,738.5,380.7,741.2,380.7z"/>
	<path class="st1" d="M766.4,381.8c-5.1-0.2-5.1-0.2-10.4,0v-0.3l1-0.2c2-0.4,2.4-0.7,2.4-3.7v-21.8c0-3-0.3-3.3-2.4-3.7l-1-0.2
		v-0.3c5.2,0.2,5.2,0.2,10.4,0v0.3l-1,0.2c-2,0.4-2.4,0.7-2.4,3.7v21.8c0,3,0.3,3.3,2.4,3.7l1,0.2V381.8z"/>
	<path class="st1" d="M770.7,351.7h19.4c0.9,0,1.4-0.2,2-0.7h0.1l0.6,6.1l-0.4,0.1c-0.6-2.4-1.3-4.7-4.8-4.7h-2
		c-2.9,0-3.2,0.4-3.2,2.8v22.3c0,3,0.3,3.1,3.2,3.7l1,0.2v0.3c-6.1-0.2-6.1-0.2-12,0v-0.3l1-0.2c2.8-0.4,3.2-0.7,3.2-3.7v-22.3
		c0-2.4-0.3-2.8-3.2-2.8h-2c-3.6,0-4.2,2.2-4.8,4.7l-0.4-0.1l0.6-6.1h0.1C769.3,351.5,769.8,351.7,770.7,351.7z"/>
	<path class="st1" d="M804.8,381.8c-5.1-0.2-5.1-0.2-10.4,0v-0.3l1-0.2c2-0.4,2.4-0.7,2.4-3.7v-21.8c0-3-0.3-3.3-2.4-3.7l-1-0.2
		v-0.3c5.2,0.2,5.2,0.2,10.4,0v0.3l-1,0.2c-2,0.4-2.4,0.7-2.4,3.7v21.8c0,3,0.3,3.3,2.4,3.7l1,0.2V381.8z"/>
	<path class="st1" d="M822.7,351.2c8.8,0,15.7,6.7,15.7,15.2c0,9.1-6.5,15.9-15.2,15.9c-8.8,0-15.7-6.7-15.7-15.2
		C807.5,358,814,351.2,822.7,351.2z M822.7,352.3c-6.4,0-10.8,5.8-10.8,14.7c0,8.4,4.8,14.3,11.3,14.3c6.4,0,10.8-5.8,10.8-14.7
		C834,358.1,829.2,352.3,822.7,352.3z"/>
	<path class="st1" d="M868,382.5h-0.4l-21.1-26.2l0.7,22.1c0.1,2.2,0.4,2.5,2.2,2.8l1.2,0.2v0.3c-4.5-0.2-4.5-0.2-8.8,0v-0.3l1-0.2
		c1.7-0.4,2.3-0.7,2.3-2.9l0.4-23.2c-1-1.8-2.1-2.8-3.8-3.2l-1-0.2v-0.3c3,0.1,3,0.1,6.7,0.1l19.4,24l-0.1-20.7
		c0-2.2-0.4-2.5-2.2-2.8l-1.2-0.2v-0.3c4.4,0.2,4.4,0.2,8.5,0v0.3l-1,0.2c-1.7,0.4-2.3,0.7-2.3,2.9L868,382.5z"/>
</g>
</svg>
